999
dxfrw 0.6.3
  0
SECTION
  2
HEADER
  9
$ACADVER
  1
AC1021
  9
$DWGCODEPAGE
  3
ANSI_1252
  9
$INSBASE
 10
0
 20
0
 30
0
  9
$EXTMIN
 10
0.000282
 20
-2.257776
 30
0
  9
$EXTMAX
 10
5.484874
 20
10.456848
 30
0
  9
$LIMMIN
 10
0
 20
0
  9
$LIMMAX
 10
420
 20
297
  9
$ORTHOMODE
 70
    0
  9
$REGENMODE
 70
    1
  9
$FILLMODE
 70
    1
  9
$QTEXTMODE
 70
    0
  9
$MIRRTEXT
 70
    0
  9
$LTSCALE
 40
1
  9
$ATTMODE
 70
    0
  9
$TEXTSIZE
 40
2.5
  9
$TRACEWID
 40
15.68
  9
$TEXTSTYLE
  7
STANDARD
  9
$CLAYER
  8
0
  9
$CELTYPE
  6
BYLAYER
  9
$CECOLOR
 62
  256
  9
$CELTSCALE
 40
1
  9
$DISPSILH
 70
    0
  9
$DIMSCALE
 40
2.5
  9
$DIMASZ
 40
2.5
  9
$DIMEXO
 40
0.625
  9
$DIMDLI
 40
3.75
  9
$DIMRND
 40
0
  9
$DIMDLE
 40
0
  9
$DIMEXE
 40
1.25
  9
$DIMTP
 40
0
  9
$DIMTM
 40
0
  9
$DIMTXT
 40
2.5
  9
$DIMCEN
 40
2.5
  9
$DIMTSZ
 40
0
  9
$DIMTOL
 70
    0
  9
$DIMLIM
 70
    0
  9
$DIMTIH
 70
    0
  9
$DIMTOH
 70
    0
  9
$DIMSE1
 70
    0
  9
$DIMSE2
 70
    0
  9
$DIMTAD
 70
    1
  9
$DIMZIN
 70
    8
  9
$DIMBLK
  1

  9
$DIMASO
 70
    1
  9
$DIMSHO
 70
    1
  9
$DIMPOST
  1

  9
$DIMAPOST
  1

  9
$DIMALT
 70
    0
  9
$DIMALTD
 70
    3
  9
$DIMALTF
 40
0.03937
  9
$DIMLFAC
 40
1
  9
$DIMTOFL
 70
    1
  9
$DIMTVP
 40
0
  9
$DIMTIX
 70
    0
  9
$DIMSOXD
 70
    0
  9
$DIMSAH
 70
    0
  9
$DIMBLK1
  1

  9
$DIMBLK2
  1

  9
$DIMSTYLE
  2
Standard
  9
$DIMCLRD
 70
    0
  9
$DIMCLRE
 70
    0
  9
$DIMCLRT
 70
    0
  9
$DIMTFAC
 40
1
  9
$DIMGAP
 40
0.625
  9
$DIMJUST
 70
    0
  9
$DIMSD1
 70
    0
  9
$DIMSD2
 70
    0
  9
$DIMTOLJ
 70
    0
  9
$DIMTZIN
 70
    8
  9
$DIMALTZ
 70
    0
  9
$DIMALTTZ
 70
    0
  9
$DIMUPT
 70
    0
  9
$DIMDEC
 70
    2
  9
$DIMTDEC
 70
    2
  9
$DIMALTU
 70
    2
  9
$DIMALTTD
 70
    3
  9
$DIMTXSTY
  7
STANDARD
  9
$DIMAUNIT
 70
    0
  9
$DIMADEC
 70
    0
  9
$DIMALTRND
 40
0
  9
$DIMAZIN
 70
    0
  9
$DIMDSEP
 70
   44
  9
$DIMATFIT
 70
    3
  9
$DIMFRAC
 70
    0
  9
$DIMLDRBLK
  1
STANDARD
  9
$DIMLUNIT
 70
    2
  9
$DIMLWD
 70
   -2
  9
$DIMLWE
 70
   -2
  9
$DIMTMOVE
 70
    0
  9
$DIMFXL
 40
1
  9
$DIMFXLON
 70
    0
  9
$DIMJOGANG
 40
0.7854
  9
$DIMTFILL
 70
    0
  9
$DIMTFILLCLR
 70
    0
  9
$DIMARCSYM
 70
    0
  9
$DIMLTYPE
  6

  9
$DIMLTEX1
  6

  9
$DIMLTEX2
  6

  9
$LUNITS
 70
    2
  9
$LUPREC
 70
    4
  9
$SKETCHINC
 40
1
  9
$FILLETRAD
 40
0
  9
$AUNITS
 70
    0
  9
$AUPREC
 70
    2
  9
$MENU
  1
.
  9
$ELEVATION
 40
0
  9
$PELEVATION
 40
0
  9
$THICKNESS
 40
0
  9
$LIMCHECK
 70
    0
  9
$CHAMFERA
 40
0
  9
$CHAMFERB
 40
0
  9
$CHAMFERC
 40
0
  9
$CHAMFERD
 40
0
  9
$SKPOLY
 70
    0
  9
$USRTIMER
 70
    1
  9
$ANGBASE
 50
0
  9
$ANGDIR
 70
    0
  9
$PDMODE
 70
   34
  9
$PDSIZE
 40
0
  9
$PLINEWID
 40
0
  9
$SPLFRAME
 70
    0
  9
$SPLINETYPE
 70
    2
  9
$SPLINESEGS
 70
    8
  9
$HANDSEED
  5
20000
  9
$SURFTAB1
 70
    6
  9
$SURFTAB2
 70
    6
  9
$SURFTYPE
 70
    6
  9
$SURFU
 70
    6
  9
$SURFV
 70
    6
  9
$UCSBASE
  2

  9
$UCSNAME
  2

  9
$UCSORG
 10
0
 20
0
 30
0
  9
$UCSXDIR
 10
1
 20
0
 30
0
  9
$UCSYDIR
 10
0
 20
1
 30
0
  9
$UCSORTHOREF
  2

  9
$UCSORTHOVIEW
 70
    0
  9
$UCSORGTOP
 10
0
 20
0
 30
0
  9
$UCSORGBOTTOM
 10
0
 20
0
 30
0
  9
$UCSORGLEFT
 10
0
 20
0
 30
0
  9
$UCSORGRIGHT
 10
0
 20
0
 30
0
  9
$UCSORGFRONT
 10
0
 20
0
 30
0
  9
$UCSORGBACK
 10
0
 20
0
 30
0
  9
$PUCSBASE
  2

  9
$PUCSNAME
  2

  9
$PUCSORG
 10
0
 20
0
 30
0
  9
$PUCSXDIR
 10
1
 20
0
 30
0
  9
$PUCSYDIR
 10
0
 20
1
 30
0
  9
$PUCSORTHOREF
  2

  9
$PUCSORTHOVIEW
 70
    0
  9
$PUCSORGTOP
 10
0
 20
0
 30
0
  9
$PUCSORGBOTTOM
 10
0
 20
0
 30
0
  9
$PUCSORGLEFT
 10
0
 20
0
 30
0
  9
$PUCSORGRIGHT
 10
0
 20
0
 30
0
  9
$PUCSORGFRONT
 10
0
 20
0
 30
0
  9
$PUCSORGBACK
 10
0
 20
0
 30
0
  9
$USERI1
 70
    0
  9
$USERI2
 70
    0
  9
$USERI3
 70
    0
  9
$USERI4
 70
    0
  9
$USERI5
 70
    0
  9
$USERR1
 40
0
  9
$USERR2
 40
0
  9
$USERR3
 40
0
  9
$USERR4
 40
0
  9
$USERR5
 40
0
  9
$WORLDVIEW
 70
    1
  9
$SHADEDGE
 70
    3
  9
$SHADEDIF
 70
   70
  9
$TILEMODE
 70
    1
  9
$MAXACTVP
 70
   64
  9
$PINSBASE
 10
0
 20
0
 30
0
  9
$PLIMCHECK
 70
    0
  9
$PEXTMIN
 10
0
 20
0
 30
0
  9
$PEXTMAX
 10
0
 20
0
 30
0
  9
$GRIDMODE
 70
    0
  9
$SNAPSTYLE
 70
    0
  9
$PLIMMIN
 10
0
 20
0
  9
$PLIMMAX
 10
210
 20
297
  9
$UNITMODE
 70
    0
  9
$VISRETAIN
 70
    1
  9
$PLINEGEN
 70
    0
  9
$PSLTSCALE
 70
    1
  9
$TREEDEPTH
 70
 3020
  9
$CMLSTYLE
  2
Standard
  9
$CMLJUST
 70
    0
  9
$CMLSCALE
 40
20
  9
$PROXYGRAPHICS
 70
    1
  9
$MEASUREMENT
 70
    1
  9
$CELWEIGHT
370
   -1
  9
$ENDCAPS
280
    0
  9
$JOINSTYLE
280
    0
  9
$LWDISPLAY
290
    0
  9
$INSUNITS
 70
    4
  9
$HYPERLINKBASE
  1

  9
$STYLESHEET
  1

  9
$XEDIT
290
    1
  9
$CEPSNTYPE
380
    0
  9
$PSTYLEMODE
290
    1
  9
$EXTNAMES
290
    1
  9
$PSVPSCALE
 40
1
  9
$OLESTARTUP
290
    0
  9
$SORTENTS
280
  127
  9
$INDEXCTL
280
    0
  9
$HIDETEXT
280
    1
  9
$XCLIPFRAME
290
    0
  9
$HALOGAP
280
    0
  9
$OBSCOLOR
 70
  257
  9
$OBSLTYPE
280
    0
  9
$INTERSECTIONDISPLAY
280
    0
  9
$INTERSECTIONCOLOR
 70
  257
  9
$DIMASSOC
280
    1
  9
$PROJECTNAME
  1

  9
$CAMERADISPLAY
290
    0
  9
$LENSLENGTH
 40
50
  9
$CAMERAHEIGHT
 40
0
  9
$STEPSPERSEC
 40
2
  9
$STEPSIZE
 40
50
  9
$3DDWFPREC
 40
2
  9
$PSOLWIDTH
 40
5
  9
$PSOLHEIGHT
 40
80
  9
$LOFTANG1
 40
1.570796326794897
  9
$LOFTANG2
 40
1.570796326794897
  9
$LOFTMAG1
 40
0
  9
$LOFTMAG2
 40
0
  9
$LOFTPARAM
 70
    7
  9
$LOFTNORMALS
280
    1
  9
$LATITUDE
 40
1
  9
$LONGITUDE
 40
1
  9
$NORTHDIRECTION
 40
0
  9
$TIMEZONE
 70
-8000
  9
$LIGHTGLYPHDISPLAY
280
    1
  9
$TILEMODELIGHTSYNCH
280
    1
  9
$SOLIDHIST
280
    1
  9
$SHOWHIST
280
    1
  9
$DWFFRAME
280
    2
  9
$DGNFRAME
280
    0
  9
$REALWORLDSCALE
290
    1
  9
$INTERFERECOLOR
 62
    1
  9
$CSHADOW
280
    0
  9
$SHADOWPLANELOCATION
 40
0
  0
ENDSEC
  0
SECTION
  2
CLASSES
  0
ENDSEC
  0
SECTION
  2
TABLES
  0
TABLE
  2
VPORT
  5
8
330
0
100
AcDbSymbolTable
 70
    1
  0
VPORT
  5
31
330
2
100
AcDbSymbolTableRecord
100
AcDbViewportTableRecord
  2
*ACTIVE
 70
    0
 10
0
 20
0
 11
1
 21
1
 12
22.09699473949516
 22
14.63925901491554
 13
0
 23
0
 14
10
 24
10
 15
10
 25
10
 16
0
 26
0
 36
1
 17
0
 27
0
 37
0
 40
43.71061771906386
 41
1.687203791469194
 42
50
 43
0
 44
0
 50
0
 51
0
 71
    0
 72
  100
 73
    1
 74
    3
 75
    0
 76
    0
 77
    0
 78
    0
281
    0
 65
    1
110
0
120
0
130
0
111
1
121
0
131
0
112
0
122
1
132
0
 79
    0
146
0
348
10020
 60
    7
 61
    5
292
1
282
    1
141
0
142
0
 63
  250
421
3358443
  0
ENDTAB
  0
TABLE
  2
LTYPE
  5
5
330
0
100
AcDbSymbolTable
 70
    4
  0
LTYPE
  5
14
330
5
100
AcDbSymbolTableRecord
100
AcDbLinetypeTableRecord
  2
ByBlock
 70
    0
  3

 72
   65
 73
    0
 40
0
  0
LTYPE
  5
15
330
5
100
AcDbSymbolTableRecord
100
AcDbLinetypeTableRecord
  2
ByLayer
 70
    0
  3

 72
   65
 73
    0
 40
0
  0
LTYPE
  5
16
330
5
100
AcDbSymbolTableRecord
100
AcDbLinetypeTableRecord
  2
Continuous
 70
    0
  3
Solid line
 72
   65
 73
    0
 40
0
  0
LTYPE
  5
32
330
5
100
AcDbSymbolTableRecord
100
AcDbLinetypeTableRecord
  2
DOT
 70
    0
  3
Dot . . . . . . . . . . . . . . . . . . . . . .
 72
   65
 73
    2
 40
6.35
 49
0
 74
    0
 49
-6.35
 74
    0
  0
LTYPE
  5
33
330
5
100
AcDbSymbolTableRecord
100
AcDbLinetypeTableRecord
  2
DOTTINY
 70
    0
  3
Dot (.15x) .....................................
 72
   65
 73
    2
 40
0.9525
 49
0
 74
    0
 49
-0.9525
 74
    0
  0
LTYPE
  5
34
330
5
100
AcDbSymbolTableRecord
100
AcDbLinetypeTableRecord
  2
DOT2
 70
    0
  3
Dot (.5x) .....................................
 72
   65
 73
    2
 40
3.175
 49
0
 74
    0
 49
-3.175
 74
    0
  0
LTYPE
  5
35
330
5
100
AcDbSymbolTableRecord
100
AcDbLinetypeTableRecord
  2
DOTX2
 70
    0
  3
Dot (2x) .  .  .  .  .  .  .  .  .  .  .  .  .
 72
   65
 73
    2
 40
12.7
 49
0
 74
    0
 49
-12.7
 74
    0
  0
LTYPE
  5
36
330
5
100
AcDbSymbolTableRecord
100
AcDbLinetypeTableRecord
  2
DASHED
 70
    0
  3
Dashed _ _ _ _ _ _ _ _ _ _ _ _ _ _ _ _ _
 72
   65
 73
    2
 40
19.05
 49
12.7
 74
    0
 49
-6.35
 74
    0
  0
LTYPE
  5
37
330
5
100
AcDbSymbolTableRecord
100
AcDbLinetypeTableRecord
  2
DASHEDTINY
 70
    0
  3
Dashed (.15x) _ _ _ _ _ _ _ _ _ _ _ _ _ _ _ _ _
 72
   65
 73
    2
 40
2.8575
 49
1.905
 74
    0
 49
-0.9525
 74
    0
  0
LTYPE
  5
38
330
5
100
AcDbSymbolTableRecord
100
AcDbLinetypeTableRecord
  2
DASHED2
 70
    0
  3
Dashed (.5x) _ _ _ _ _ _ _ _ _ _ _ _ _ _ _ _ _
 72
   65
 73
    2
 40
9.524999999999999
 49
6.35
 74
    0
 49
-3.175
 74
    0
  0
LTYPE
  5
39
330
5
100
AcDbSymbolTableRecord
100
AcDbLinetypeTableRecord
  2
DASHEDX2
 70
    0
  3
Dashed (2x) ____  ____  ____  ____  ____  ___
 72
   65
 73
    2
 40
38.09999999999999
 49
25.4
 74
    0
 49
-12.7
 74
    0
  0
LTYPE
  5
3A
330
5
100
AcDbSymbolTableRecord
100
AcDbLinetypeTableRecord
  2
DASHDOT
 70
    0
  3
Dash dot __ . __ . __ . __ . __ . __ . __ . __
 72
   65
 73
    4
 40
25.4
 49
12.7
 74
    0
 49
-6.35
 74
    0
 49
0
 74
    0
 49
-6.35
 74
    0
  0
LTYPE
  5
3B
330
5
100
AcDbSymbolTableRecord
100
AcDbLinetypeTableRecord
  2
DASHDOTTINY
 70
    0
  3
Dash dot (.15x) _._._._._._._._._._._._._._._.
 72
   65
 73
    4
 40
3.81
 49
1.905
 74
    0
 49
-0.9525
 74
    0
 49
0
 74
    0
 49
-0.9525
 74
    0
  0
LTYPE
  5
3C
330
5
100
AcDbSymbolTableRecord
100
AcDbLinetypeTableRecord
  2
DASHDOT2
 70
    0
  3
Dash dot (.5x) _._._._._._._._._._._._._._._.
 72
   65
 73
    4
 40
12.7
 49
6.35
 74
    0
 49
-3.175
 74
    0
 49
0
 74
    0
 49
-3.175
 74
    0
  0
LTYPE
  5
3D
330
5
100
AcDbSymbolTableRecord
100
AcDbLinetypeTableRecord
  2
DASHDOTX2
 70
    0
  3
Dash dot (2x) ____  .  ____  .  ____  .  ___
 72
   65
 73
    4
 40
50.8
 49
25.4
 74
    0
 49
-12.7
 74
    0
 49
0
 74
    0
 49
-12.7
 74
    0
  0
LTYPE
  5
3E
330
5
100
AcDbSymbolTableRecord
100
AcDbLinetypeTableRecord
  2
DIVIDE
 70
    0
  3
Divide ____ . . ____ . . ____ . . ____ . . ____
 72
   65
 73
    6
 40
31.75
 49
12.7
 74
    0
 49
-6.35
 74
    0
 49
0
 74
    0
 49
-6.35
 74
    0
 49
0
 74
    0
 49
-6.35
 74
    0
  0
LTYPE
  5
3F
330
5
100
AcDbSymbolTableRecord
100
AcDbLinetypeTableRecord
  2
DIVIDETINY
 70
    0
  3
Divide (.15x) __..__..__..__..__..__..__..__.._
 72
   65
 73
    6
 40
4.7625
 49
1.905
 74
    0
 49
-0.9525
 74
    0
 49
0
 74
    0
 49
-0.9525
 74
    0
 49
0
 74
    0
 49
-0.9525
 74
    0
  0
LTYPE
  5
40
330
5
100
AcDbSymbolTableRecord
100
AcDbLinetypeTableRecord
  2
DIVIDE2
 70
    0
  3
Divide (.5x) __..__..__..__..__..__..__..__.._
 72
   65
 73
    6
 40
15.875
 49
6.35
 74
    0
 49
-3.175
 74
    0
 49
0
 74
    0
 49
-3.175
 74
    0
 49
0
 74
    0
 49
-3.175
 74
    0
  0
LTYPE
  5
41
330
5
100
AcDbSymbolTableRecord
100
AcDbLinetypeTableRecord
  2
DIVIDEX2
 70
    0
  3
Divide (2x) ________  .  .  ________  .  .  _
 72
   65
 73
    6
 40
63.5
 49
25.4
 74
    0
 49
-12.7
 74
    0
 49
0
 74
    0
 49
-12.7
 74
    0
 49
0
 74
    0
 49
-12.7
 74
    0
  0
LTYPE
  5
42
330
5
100
AcDbSymbolTableRecord
100
AcDbLinetypeTableRecord
  2
BORDER
 70
    0
  3
Border __ __ . __ __ . __ __ . __ __ . __ __ .
 72
   65
 73
    6
 40
44.45
 49
12.7
 74
    0
 49
-6.35
 74
    0
 49
12.7
 74
    0
 49
-6.35
 74
    0
 49
0
 74
    0
 49
-6.35
 74
    0
  0
LTYPE
  5
43
330
5
100
AcDbSymbolTableRecord
100
AcDbLinetypeTableRecord
  2
BORDERTINY
 70
    0
  3
Border (.15x) __.__.__.__.__.__.__.__.__.__.__.
 72
   65
 73
    6
 40
6.6675
 49
1.905
 74
    0
 49
-0.9525
 74
    0
 49
1.905
 74
    0
 49
-0.9525
 74
    0
 49
0
 74
    0
 49
-0.9525
 74
    0
  0
LTYPE
  5
44
330
5
100
AcDbSymbolTableRecord
100
AcDbLinetypeTableRecord
  2
BORDER2
 70
    0
  3
Border (.5x) __.__.__.__.__.__.__.__.__.__.__.
 72
   65
 73
    6
 40
22.225
 49
6.35
 74
    0
 49
-3.175
 74
    0
 49
6.35
 74
    0
 49
-3.175
 74
    0
 49
0
 74
    0
 49
-3.175
 74
    0
  0
LTYPE
  5
45
330
5
100
AcDbSymbolTableRecord
100
AcDbLinetypeTableRecord
  2
BORDERX2
 70
    0
  3
Border (2x) ____  ____  .  ____  ____  .  ___
 72
   65
 73
    6
 40
88.89999999999999
 49
25.4
 74
    0
 49
-12.7
 74
    0
 49
25.4
 74
    0
 49
-12.7
 74
    0
 49
0
 74
    0
 49
-12.7
 74
    0
  0
LTYPE
  5
46
330
5
100
AcDbSymbolTableRecord
100
AcDbLinetypeTableRecord
  2
CENTER
 70
    0
  3
Center ____ _ ____ _ ____ _ ____ _ ____ _ ____
 72
   65
 73
    4
 40
50.8
 49
31.75
 74
    0
 49
-6.35
 74
    0
 49
6.35
 74
    0
 49
-6.35
 74
    0
  0
LTYPE
  5
47
330
5
100
AcDbSymbolTableRecord
100
AcDbLinetypeTableRecord
  2
CENTERTINY
 70
    0
  3
Center (.15x) ___ _ ___ _ ___ _ ___ _ ___ _ ___
 72
   65
 73
    4
 40
7.619999999999999
 49
4.7625
 74
    0
 49
-0.9525
 74
    0
 49
0.9525
 74
    0
 49
-0.9525
 74
    0
  0
LTYPE
  5
48
330
5
100
AcDbSymbolTableRecord
100
AcDbLinetypeTableRecord
  2
CENTER2
 70
    0
  3
Center (.5x) ___ _ ___ _ ___ _ ___ _ ___ _ ___
 72
   65
 73
    4
 40
28.575
 49
19.05
 74
    0
 49
-3.175
 74
    0
 49
3.175
 74
    0
 49
-3.175
 74
    0
  0
LTYPE
  5
49
330
5
100
AcDbSymbolTableRecord
100
AcDbLinetypeTableRecord
  2
CENTERX2
 70
    0
  3
Center (2x) ________  __  ________  __  _____
 72
   65
 73
    4
 40
101.6
 49
63.5
 74
    0
 49
-12.7
 74
    0
 49
12.7
 74
    0
 49
-12.7
 74
    0
  0
ENDTAB
  0
TABLE
  2
LAYER
  5
2
330
0
100
AcDbSymbolTable
 70
    1
  0
LAYER
  5
4A
330
2
100
AcDbSymbolTableRecord
100
AcDbLayerTableRecord
  2
!
 70
    1
 62
    7
  6
CONTINUOUS
370
   -3
390
F
  0
LAYER
  5
4B
330
2
100
AcDbSymbolTableRecord
100
AcDbLayerTableRecord
  2
"
 70
    1
 62
    7
  6
CONTINUOUS
370
   -3
390
F
  0
LAYER
  5
4C
330
2
100
AcDbSymbolTableRecord
100
AcDbLayerTableRecord
  2
#
 70
    1
 62
    7
  6
CONTINUOUS
370
   -3
390
F
  0
LAYER
  5
4D
330
2
100
AcDbSymbolTableRecord
100
AcDbLayerTableRecord
  2
$
 70
    1
 62
    7
  6
CONTINUOUS
370
   -3
390
F
  0
LAYER
  5
4E
330
2
100
AcDbSymbolTableRecord
100
AcDbLayerTableRecord
  2
%
 70
    1
 62
    7
  6
CONTINUOUS
370
   -3
390
F
  0
LAYER
  5
4F
330
2
100
AcDbSymbolTableRecord
100
AcDbLayerTableRecord
  2
&
 70
    1
 62
    7
  6
CONTINUOUS
370
   -3
390
F
  0
LAYER
  5
50
330
2
100
AcDbSymbolTableRecord
100
AcDbLayerTableRecord
  2
'
 70
    1
 62
    7
  6
CONTINUOUS
370
   -3
390
F
  0
LAYER
  5
51
330
2
100
AcDbSymbolTableRecord
100
AcDbLayerTableRecord
  2
(
 70
    1
 62
    7
  6
CONTINUOUS
370
   -3
390
F
  0
LAYER
  5
52
330
2
100
AcDbSymbolTableRecord
100
AcDbLayerTableRecord
  2
)
 70
    1
 62
    7
  6
CONTINUOUS
370
   -3
390
F
  0
LAYER
  5
53
330
2
100
AcDbSymbolTableRecord
100
AcDbLayerTableRecord
  2
*
 70
    1
 62
    7
  6
CONTINUOUS
370
   -3
390
F
  0
LAYER
  5
54
330
2
100
AcDbSymbolTableRecord
100
AcDbLayerTableRecord
  2
+
 70
    1
 62
    7
  6
CONTINUOUS
370
   -3
390
F
  0
LAYER
  5
55
330
2
100
AcDbSymbolTableRecord
100
AcDbLayerTableRecord
  2
,
 70
    1
 62
    7
  6
CONTINUOUS
370
   -3
390
F
  0
LAYER
  5
56
330
2
100
AcDbSymbolTableRecord
100
AcDbLayerTableRecord
  2
-
 70
    1
 62
    7
  6
CONTINUOUS
370
   -3
390
F
  0
LAYER
  5
57
330
2
100
AcDbSymbolTableRecord
100
AcDbLayerTableRecord
  2
.
 70
    1
 62
    7
  6
CONTINUOUS
370
   -3
390
F
  0
LAYER
  5
58
330
2
100
AcDbSymbolTableRecord
100
AcDbLayerTableRecord
  2
/
 70
    1
 62
    7
  6
CONTINUOUS
370
   -3
390
F
  0
LAYER
  5
10
330
2
100
AcDbSymbolTableRecord
100
AcDbLayerTableRecord
  2
0
 70
    0
 62
    7
  6
CONTINUOUS
370
   -3
390
F
  0
LAYER
  5
59
330
2
100
AcDbSymbolTableRecord
100
AcDbLayerTableRecord
  2
1
 70
    1
 62
    7
  6
CONTINUOUS
370
   -3
390
F
  0
LAYER
  5
5A
330
2
100
AcDbSymbolTableRecord
100
AcDbLayerTableRecord
  2
2
 70
    1
 62
    7
  6
CONTINUOUS
370
   -3
390
F
  0
LAYER
  5
5B
330
2
100
AcDbSymbolTableRecord
100
AcDbLayerTableRecord
  2
3
 70
    1
 62
    7
  6
CONTINUOUS
370
   -3
390
F
  0
LAYER
  5
5C
330
2
100
AcDbSymbolTableRecord
100
AcDbLayerTableRecord
  2
4
 70
    1
 62
    7
  6
CONTINUOUS
370
   -3
390
F
  0
LAYER
  5
5D
330
2
100
AcDbSymbolTableRecord
100
AcDbLayerTableRecord
  2
5
 70
    1
 62
    7
  6
CONTINUOUS
370
   -3
390
F
  0
LAYER
  5
5E
330
2
100
AcDbSymbolTableRecord
100
AcDbLayerTableRecord
  2
6
 70
    1
 62
    7
  6
CONTINUOUS
370
   -3
390
F
  0
LAYER
  5
5F
330
2
100
AcDbSymbolTableRecord
100
AcDbLayerTableRecord
  2
7
 70
    1
 62
    7
  6
CONTINUOUS
370
   -3
390
F
  0
LAYER
  5
60
330
2
100
AcDbSymbolTableRecord
100
AcDbLayerTableRecord
  2
8
 70
    1
 62
    7
  6
CONTINUOUS
370
   -3
390
F
  0
LAYER
  5
61
330
2
100
AcDbSymbolTableRecord
100
AcDbLayerTableRecord
  2
9
 70
    1
 62
    7
  6
CONTINUOUS
370
   -3
390
F
  0
LAYER
  5
62
330
2
100
AcDbSymbolTableRecord
100
AcDbLayerTableRecord
  2
:
 70
    1
 62
    7
  6
CONTINUOUS
370
   -3
390
F
  0
LAYER
  5
63
330
2
100
AcDbSymbolTableRecord
100
AcDbLayerTableRecord
  2
;
 70
    1
 62
    7
  6
CONTINUOUS
370
   -3
390
F
  0
LAYER
  5
64
330
2
100
AcDbSymbolTableRecord
100
AcDbLayerTableRecord
  2
<
 70
    1
 62
    7
  6
CONTINUOUS
370
   -3
390
F
  0
LAYER
  5
65
330
2
100
AcDbSymbolTableRecord
100
AcDbLayerTableRecord
  2
=
 70
    1
 62
    7
  6
CONTINUOUS
370
   -3
390
F
  0
LAYER
  5
66
330
2
100
AcDbSymbolTableRecord
100
AcDbLayerTableRecord
  2
>
 70
    1
 62
    7
  6
CONTINUOUS
370
   -3
390
F
  0
LAYER
  5
67
330
2
100
AcDbSymbolTableRecord
100
AcDbLayerTableRecord
  2
?
 70
    1
 62
    7
  6
CONTINUOUS
370
   -3
390
F
  0
LAYER
  5
68
330
2
100
AcDbSymbolTableRecord
100
AcDbLayerTableRecord
  2
@
 70
    1
 62
    7
  6
CONTINUOUS
370
   -3
390
F
  0
LAYER
  5
69
330
2
100
AcDbSymbolTableRecord
100
AcDbLayerTableRecord
  2
A
 70
    1
 62
    7
  6
CONTINUOUS
370
   -3
390
F
  0
LAYER
  5
6A
330
2
100
AcDbSymbolTableRecord
100
AcDbLayerTableRecord
  2
B
 70
    1
 62
    7
  6
CONTINUOUS
370
   -3
390
F
  0
LAYER
  5
6B
330
2
100
AcDbSymbolTableRecord
100
AcDbLayerTableRecord
  2
C
 70
    1
 62
    7
  6
CONTINUOUS
370
   -3
390
F
  0
LAYER
  5
6C
330
2
100
AcDbSymbolTableRecord
100
AcDbLayerTableRecord
  2
D
 70
    1
 62
    7
  6
CONTINUOUS
370
   -3
390
F
  0
LAYER
  5
6D
330
2
100
AcDbSymbolTableRecord
100
AcDbLayerTableRecord
  2
E
 70
    1
 62
    7
  6
CONTINUOUS
370
   -3
390
F
  0
LAYER
  5
6E
330
2
100
AcDbSymbolTableRecord
100
AcDbLayerTableRecord
  2
F
 70
    1
 62
    7
  6
CONTINUOUS
370
   -3
390
F
  0
LAYER
  5
6F
330
2
100
AcDbSymbolTableRecord
100
AcDbLayerTableRecord
  2
G
 70
    1
 62
    7
  6
CONTINUOUS
370
   -3
390
F
  0
LAYER
  5
70
330
2
100
AcDbSymbolTableRecord
100
AcDbLayerTableRecord
  2
H
 70
    1
 62
    7
  6
CONTINUOUS
370
   -3
390
F
  0
LAYER
  5
71
330
2
100
AcDbSymbolTableRecord
100
AcDbLayerTableRecord
  2
I
 70
    1
 62
    7
  6
CONTINUOUS
370
   -3
390
F
  0
LAYER
  5
72
330
2
100
AcDbSymbolTableRecord
100
AcDbLayerTableRecord
  2
J
 70
    1
 62
    7
  6
CONTINUOUS
370
   -3
390
F
  0
LAYER
  5
73
330
2
100
AcDbSymbolTableRecord
100
AcDbLayerTableRecord
  2
K
 70
    1
 62
    7
  6
CONTINUOUS
370
   -3
390
F
  0
LAYER
  5
74
330
2
100
AcDbSymbolTableRecord
100
AcDbLayerTableRecord
  2
L
 70
    1
 62
    7
  6
CONTINUOUS
370
   -3
390
F
  0
LAYER
  5
75
330
2
100
AcDbSymbolTableRecord
100
AcDbLayerTableRecord
  2
M
 70
    1
 62
    7
  6
CONTINUOUS
370
   -3
390
F
  0
LAYER
  5
76
330
2
100
AcDbSymbolTableRecord
100
AcDbLayerTableRecord
  2
N
 70
    1
 62
    7
  6
CONTINUOUS
370
   -3
390
F
  0
LAYER
  5
77
330
2
100
AcDbSymbolTableRecord
100
AcDbLayerTableRecord
  2
O
 70
    1
 62
    7
  6
CONTINUOUS
370
   -3
390
F
  0
LAYER
  5
78
330
2
100
AcDbSymbolTableRecord
100
AcDbLayerTableRecord
  2
P
 70
    1
 62
    7
  6
CONTINUOUS
370
   -3
390
F
  0
LAYER
  5
79
330
2
100
AcDbSymbolTableRecord
100
AcDbLayerTableRecord
  2
Q
 70
    1
 62
    7
  6
CONTINUOUS
370
   -3
390
F
  0
LAYER
  5
7A
330
2
100
AcDbSymbolTableRecord
100
AcDbLayerTableRecord
  2
R
 70
    1
 62
    7
  6
CONTINUOUS
370
   -3
390
F
  0
LAYER
  5
7B
330
2
100
AcDbSymbolTableRecord
100
AcDbLayerTableRecord
  2
S
 70
    1
 62
    7
  6
CONTINUOUS
370
   -3
390
F
  0
LAYER
  5
7C
330
2
100
AcDbSymbolTableRecord
100
AcDbLayerTableRecord
  2
T
 70
    1
 62
    7
  6
CONTINUOUS
370
   -3
390
F
  0
LAYER
  5
7D
330
2
100
AcDbSymbolTableRecord
100
AcDbLayerTableRecord
  2
U
 70
    1
 62
    7
  6
CONTINUOUS
370
   -3
390
F
  0
LAYER
  5
7E
330
2
100
AcDbSymbolTableRecord
100
AcDbLayerTableRecord
  2
V
 70
    1
 62
    7
  6
CONTINUOUS
370
   -3
390
F
  0
LAYER
  5
7F
330
2
100
AcDbSymbolTableRecord
100
AcDbLayerTableRecord
  2
W
 70
    1
 62
    7
  6
CONTINUOUS
370
   -3
390
F
  0
LAYER
  5
80
330
2
100
AcDbSymbolTableRecord
100
AcDbLayerTableRecord
  2
X
 70
    1
 62
    7
  6
CONTINUOUS
370
   -3
390
F
  0
LAYER
  5
81
330
2
100
AcDbSymbolTableRecord
100
AcDbLayerTableRecord
  2
Y
 70
    1
 62
    7
  6
CONTINUOUS
370
   -3
390
F
  0
LAYER
  5
82
330
2
100
AcDbSymbolTableRecord
100
AcDbLayerTableRecord
  2
Z
 70
    1
 62
    7
  6
CONTINUOUS
370
   -3
390
F
  0
LAYER
  5
83
330
2
100
AcDbSymbolTableRecord
100
AcDbLayerTableRecord
  2
[
 70
    1
 62
    7
  6
CONTINUOUS
370
   -3
390
F
  0
LAYER
  5
84
330
2
100
AcDbSymbolTableRecord
100
AcDbLayerTableRecord
  2
]
 70
    1
 62
    7
  6
CONTINUOUS
370
   -3
390
F
  0
LAYER
  5
85
330
2
100
AcDbSymbolTableRecord
100
AcDbLayerTableRecord
  2
^
 70
    1
 62
    7
  6
CONTINUOUS
370
   -3
390
F
  0
LAYER
  5
86
330
2
100
AcDbSymbolTableRecord
100
AcDbLayerTableRecord
  2
_
 70
    1
 62
    7
  6
CONTINUOUS
370
   -3
390
F
  0
LAYER
  5
87
330
2
100
AcDbSymbolTableRecord
100
AcDbLayerTableRecord
  2
`
 70
    1
 62
    7
  6
CONTINUOUS
370
   -3
390
F
  0
LAYER
  5
88
330
2
100
AcDbSymbolTableRecord
100
AcDbLayerTableRecord
  2
a_
 70
    1
 62
    7
  6
CONTINUOUS
370
   -3
390
F
  0
LAYER
  5
89
330
2
100
AcDbSymbolTableRecord
100
AcDbLayerTableRecord
  2
b_
 70
    1
 62
    7
  6
CONTINUOUS
370
   -3
390
F
  0
LAYER
  5
8A
330
2
100
AcDbSymbolTableRecord
100
AcDbLayerTableRecord
  2
c_
 70
    1
 62
    7
  6
CONTINUOUS
370
   -3
390
F
  0
LAYER
  5
8B
330
2
100
AcDbSymbolTableRecord
100
AcDbLayerTableRecord
  2
d_
 70
    1
 62
    7
  6
CONTINUOUS
370
   -3
390
F
  0
LAYER
  5
8C
330
2
100
AcDbSymbolTableRecord
100
AcDbLayerTableRecord
  2
e_
 70
    1
 62
    7
  6
CONTINUOUS
370
   -3
390
F
  0
LAYER
  5
8D
330
2
100
AcDbSymbolTableRecord
100
AcDbLayerTableRecord
  2
f_
 70
    1
 62
    7
  6
CONTINUOUS
370
   -3
390
F
  0
LAYER
  5
8E
330
2
100
AcDbSymbolTableRecord
100
AcDbLayerTableRecord
  2
g_
 70
    1
 62
    7
  6
CONTINUOUS
370
   -3
390
F
  0
LAYER
  5
8F
330
2
100
AcDbSymbolTableRecord
100
AcDbLayerTableRecord
  2
h_
 70
    1
 62
    7
  6
CONTINUOUS
370
   -3
390
F
  0
LAYER
  5
90
330
2
100
AcDbSymbolTableRecord
100
AcDbLayerTableRecord
  2
i_
 70
    1
 62
    7
  6
CONTINUOUS
370
   -3
390
F
  0
LAYER
  5
91
330
2
100
AcDbSymbolTableRecord
100
AcDbLayerTableRecord
  2
j_
 70
    1
 62
    7
  6
CONTINUOUS
370
   -3
390
F
  0
LAYER
  5
92
330
2
100
AcDbSymbolTableRecord
100
AcDbLayerTableRecord
  2
k_
 70
    1
 62
    7
  6
CONTINUOUS
370
   -3
390
F
  0
LAYER
  5
93
330
2
100
AcDbSymbolTableRecord
100
AcDbLayerTableRecord
  2
l_
 70
    1
 62
    7
  6
CONTINUOUS
370
   -3
390
F
  0
LAYER
  5
94
330
2
100
AcDbSymbolTableRecord
100
AcDbLayerTableRecord
  2
m_
 70
    1
 62
    7
  6
CONTINUOUS
370
   -3
390
F
  0
LAYER
  5
95
330
2
100
AcDbSymbolTableRecord
100
AcDbLayerTableRecord
  2
n_
 70
    1
 62
    7
  6
CONTINUOUS
370
   -3
390
F
  0
LAYER
  5
96
330
2
100
AcDbSymbolTableRecord
100
AcDbLayerTableRecord
  2
o_
 70
    1
 62
    7
  6
CONTINUOUS
370
   -3
390
F
  0
LAYER
  5
97
330
2
100
AcDbSymbolTableRecord
100
AcDbLayerTableRecord
  2
p_
 70
    1
 62
    7
  6
CONTINUOUS
370
   -3
390
F
  0
LAYER
  5
98
330
2
100
AcDbSymbolTableRecord
100
AcDbLayerTableRecord
  2
q_
 70
    1
 62
    7
  6
CONTINUOUS
370
   -3
390
F
  0
LAYER
  5
99
330
2
100
AcDbSymbolTableRecord
100
AcDbLayerTableRecord
  2
r_
 70
    1
 62
    7
  6
CONTINUOUS
370
   -3
390
F
  0
LAYER
  5
9A
330
2
100
AcDbSymbolTableRecord
100
AcDbLayerTableRecord
  2
s_
 70
    1
 62
    7
  6
CONTINUOUS
370
   -3
390
F
  0
LAYER
  5
9B
330
2
100
AcDbSymbolTableRecord
100
AcDbLayerTableRecord
  2
t_
 70
    1
 62
    7
  6
CONTINUOUS
370
   -3
390
F
  0
LAYER
  5
9C
330
2
100
AcDbSymbolTableRecord
100
AcDbLayerTableRecord
  2
u_
 70
    1
 62
    7
  6
CONTINUOUS
370
   -3
390
F
  0
LAYER
  5
9D
330
2
100
AcDbSymbolTableRecord
100
AcDbLayerTableRecord
  2
v_
 70
    1
 62
    7
  6
CONTINUOUS
370
   -3
390
F
  0
LAYER
  5
9E
330
2
100
AcDbSymbolTableRecord
100
AcDbLayerTableRecord
  2
w_
 70
    1
 62
    7
  6
CONTINUOUS
370
   -3
390
F
  0
LAYER
  5
9F
330
2
100
AcDbSymbolTableRecord
100
AcDbLayerTableRecord
  2
x_
 70
    1
 62
    7
  6
CONTINUOUS
370
   -3
390
F
  0
LAYER
  5
A0
330
2
100
AcDbSymbolTableRecord
100
AcDbLayerTableRecord
  2
y_
 70
    1
 62
    7
  6
CONTINUOUS
370
   -3
390
F
  0
LAYER
  5
A1
330
2
100
AcDbSymbolTableRecord
100
AcDbLayerTableRecord
  2
z_
 70
    1
 62
    7
  6
CONTINUOUS
370
   -3
390
F
  0
LAYER
  5
A2
330
2
100
AcDbSymbolTableRecord
100
AcDbLayerTableRecord
  2
{
 70
    1
 62
    7
  6
CONTINUOUS
370
   -3
390
F
  0
LAYER
  5
A3
330
2
100
AcDbSymbolTableRecord
100
AcDbLayerTableRecord
  2
|
 70
    1
 62
    7
  6
CONTINUOUS
370
   -3
390
F
  0
LAYER
  5
A4
330
2
100
AcDbSymbolTableRecord
100
AcDbLayerTableRecord
  2
}
 70
    1
 62
    7
  6
CONTINUOUS
370
   -3
390
F
  0
LAYER
  5
A5
330
2
100
AcDbSymbolTableRecord
100
AcDbLayerTableRecord
  2
~
 70
    1
 62
    7
  6
CONTINUOUS
370
   -3
390
F
  0
ENDTAB
  0
TABLE
  2
STYLE
  5
3
330
0
100
AcDbSymbolTable
 70
    3
  0
STYLE
  5
A6
330
2
100
AcDbSymbolTableRecord
100
AcDbTextStyleTableRecord
  2
Standard
 70
    0
 40
0
 41
1
 50
0
 71
    0
 42
1
  3
txt
  4

  0
ENDTAB
  0
TABLE
  2
VIEW
  5
6
330
0
100
AcDbSymbolTable
 70
    0
  0
ENDTAB
  0
TABLE
  2
UCS
  5
7
330
0
100
AcDbSymbolTable
 70
    0
  0
ENDTAB
  0
TABLE
  2
APPID
  5
9
330
0
100
AcDbSymbolTable
 70
    1
  0
APPID
  5
12
330
9
100
AcDbSymbolTableRecord
100
AcDbRegAppTableRecord
  2
ACAD
 70
    0
  0
APPID
  5
A7
330
9
100
AcDbSymbolTableRecord
100
AcDbRegAppTableRecord
  2
LibreCad
 70
    0
  0
ENDTAB
  0
TABLE
  2
DIMSTYLE
  5
A
330
0
100
AcDbSymbolTable
 70
    1
100
AcDbDimStyleTable
 71
    1
  0
DIMSTYLE
105
A8
330
A
100
AcDbSymbolTableRecord
100
AcDbDimStyleTableRecord
  2
Standard
 70
    0
 40
1
 41
2.5
 42
0.625
 43
0.38
 44
1.25
 45
0
 46
0
 47
0
 48
0
 49
1
140
2.5
141
0.09
142
2.5
143
25.4
144
1
145
0
146
1
147
0.625
148
0
 71
    0
 72
    0
 73
    0
 74
    1
 75
    0
 76
    0
 77
    0
 78
    1
 79
    0
170
    0
171
    2
172
    0
173
    0
174
    0
175
    0
176
    0
177
    0
178
    0
179
    0
271
    2
272
    4
273
    2
274
    2
275
    0
276
    0
277
    2
278
    0
279
    0
280
    0
281
    0
282
    0
283
    1
284
    0
285
    0
286
    0
288
    0
289
    3
340
standard
341

371
   -2
372
   -2
  0
ENDTAB
  0
TABLE
  2
BLOCK_RECORD
  5
1
330
0
100
AcDbSymbolTable
 70
    2
  0
BLOCK_RECORD
  5
1F
330
1
100
AcDbSymbolTableRecord
100
AcDbBlockTableRecord
  2
*Model_Space
 70
    0
280
    1
281
    0
  0
BLOCK_RECORD
  5
1E
330
1
100
AcDbSymbolTableRecord
100
AcDbBlockTableRecord
  2
*Paper_Space
 70
    0
280
    1
281
    0
  0
ENDTAB
  0
ENDSEC
  0
SECTION
  2
BLOCKS
  0
BLOCK
  5
20
330
1F
100
AcDbEntity
  8
0
100
AcDbBlockBegin
  2
*Model_Space
 70
    0
 10
0
 20
0
 30
0
  3
*Model_Space
  1

  0
ENDBLK
  5
21
330
1F
100
AcDbEntity
  8
0
100
AcDbBlockEnd
  0
BLOCK
  5
1C
330
1B
100
AcDbEntity
  8
0
100
AcDbBlockBegin
  2
*Paper_Space
 70
    0
 10
0
 20
0
 30
0
  3
*Paper_Space
  1

  0
ENDBLK
  5
1D
330
1F
100
AcDbEntity
  8
0
100
AcDbBlockEnd
  0
ENDSEC
  0
SECTION
  2
ENTITIES
  0
LWPOLYLINE
  5
A9
100
AcDbEntity
  8
A
  6
ByLayer
 62
    7
370
   -1
100
AcDbPolyline
 90
    9
 70
    0
 43
0
 10
0.000282
 20
0.000284
 10
2.08486
 20
8.081096000000001
 10
2.858708
 20
8.081096000000001
 10
5.080282
 20
0.000284
 10
4.262002
 20
0.000284
 10
3.628854
 20
2.447686
 10
1.359145
 20
2.447686
 10
0.763023
 20
0.000284
 10
0.000282
 20
0.000284
  0
LWPOLYLINE
  5
AA
100
AcDbEntity
  8
A
  6
ByLayer
 62
    7
370
   -1
100
AcDbPolyline
 90
    6
 70
    0
 43
0
 10
1.566492
 20
3.318596
 10
3.406696
 20
3.318596
 10
2.840195
 20
5.556534
 10
2.455122
 20
7.232228
 10
2.162615
 20
5.688811
 10
1.566492
 20
3.318596
  0
LWPOLYLINE
  5
AB
100
AcDbEntity
  8
B
  6
ByLayer
 62
    7
370
   -1
100
AcDbPolyline
 90
   15
 70
    0
 43
0
 10
0.000282
 20
0.000284
 10
0.000282
 20
8.081096000000001
 10
2.524221
 20
8.081096000000001
 10
3.760951
 20
7.835817
 10
4.490598
 20
7.080646
 10
4.754465
 20
6.014044
 10
4.520427
 20
5.038402
 10
3.813724
 20
4.29977
 10
4.75217
 20
3.566641
 10
5.080282
 20
2.342954
 10
4.880661
 20
1.287358
 10
4.387346
 20
0.534954
 10
3.650815
 20
0.135327
 10
2.565522
 20
0.000284
 10
0.000282
 20
0.000284
  0
LWPOLYLINE
  5
AC
100
AcDbEntity
  8
B
  6
ByLayer
 62
    7
370
   -1
100
AcDbPolyline
 90
   10
 70
    0
 43
0
 10
0.890544
 20
4.685624
 10
2.345251
 20
4.685624
 10
3.194212
 20
4.779322
 10
3.705883
 20
5.181714
 10
3.87797
 20
5.88727
 10
3.717355
 20
6.595563
 10
3.258457
 20
7.014494
 10
2.235115
 20
7.127495
 10
0.890544
 20
7.127495
 10
0.890544
 20
4.685624
  0
LWPOLYLINE
  5
AD
100
AcDbEntity
  8
B
  6
ByLayer
 62
    7
370
   -1
100
AcDbPolyline
 90
   11
 70
    0
 43
0
 10
0.890544
 20
0.953884
 10
2.565522
 20
0.953884
 10
3.171267
 20
0.992464
 10
3.685233
 20
1.212964
 10
4.024817
 20
1.662206
 10
4.157897
 20
2.342954
 10
3.96516
 20
3.128435
 10
3.430544
 20
3.596952
 10
2.446208
 20
3.732023
 10
0.890544
 20
3.732023
 10
0.890544
 20
0.953884
  0
LWPOLYLINE
  5
AE
100
AcDbEntity
  8
C
  6
ByLayer
 62
    7
370
   -1
100
AcDbPolyline
 90
   23
 70
    0
 43
0
 10
4.31985
 20
2.971322
 10
5.080282
 20
2.701235
 10
4.219896
 20
0.692067
 10
2.700992
 20
0.000284
 10
1.189927
 20
0.532216
 10
0.304063
 20
2.072839
 10
0.000282
 20
4.23912
 10
0.343261
 20
6.441244
 10
1.319279
 20
7.868893
 10
2.712751
 20
8.356714
 10
4.16306
 20
7.739353
 10
4.982288
 20
6.003009
 10
4.233616
 20
5.754964
 10
3.653492
 20
7.039301
 10
2.697072
 20
7.441693
 10
1.589742
 20
6.995218
 10
0.964541
 20
5.79631
 10
0.784233
 20
4.244652
 10
0.9978590000000001
 20
2.444921
 10
1.662258
 20
1.295627
 10
2.638276
 20
0.915304
 10
3.720128
 20
1.433436
 10
4.31985
 20
2.971322
  0
LWPOLYLINE
  5
AF
100
AcDbEntity
  8
D
  6
ByLayer
 62
    7
370
   -1
100
AcDbPolyline
 90
   13
 70
    0
 43
0
 10
0.000282
 20
0.000284
 10
0.000282
 20
8.081096000000001
 10
2.116949
 20
8.081096000000001
 10
3.210909
 20
7.965357
 10
4.112064
 20
7.386575
 10
4.839276
 20
6.005775
 10
5.080282
 20
4.084801
 10
4.916817
 20
2.45319
 10
4.497675
 20
1.276351
 10
3.93812
 20
0.543223
 10
3.204622
 20
0.138093
 10
2.217543
 20
0.000284
 10
0.000282
 20
0.000284
  0
LWPOLYLINE
  5
B0
100
AcDbEntity
  8
D
  6
ByLayer
 62
    7
370
   -1
100
AcDbPolyline
 90
   11
 70
    0
 43
0
 10
0.813418
 20
0.953884
 10
2.125332
 20
0.953884
 10
3.07888
 20
1.1027
 10
3.630051
 20
1.521631
 10
4.080629
 20
2.54415
 10
4.241998
 20
4.101311
 10
3.925546
 20
6.049858
 10
3.156421
 20
6.962141
 10
2.104375
 20
7.127495
 10
0.813418
 20
7.127495
 10
0.813418
 20
0.953884
  0
LWPOLYLINE
  5
B1
100
AcDbEntity
  8
E
  6
ByLayer
 62
    7
370
   -1
100
AcDbPolyline
 90
   15
 70
    0
 43
0
 10
0.000282
 20
0.000284
 10
0.000282
 20
8.081096000000001
 10
0.910743
 20
8.081096000000001
 10
4.922403
 20
8.081096000000001
 10
4.922403
 20
7.127495
 10
0.901123
 20
7.127495
 10
0.901123
 20
4.652548
 10
4.66701
 20
4.652548
 10
4.66701
 20
3.70445
 10
0.901123
 20
3.70445
 10
0.901123
 20
0.953884
 10
5.080282
 20
0.953884
 10
5.080282
 20
0.000284
 10
0.910743
 20
0.028732
 10
0.000282
 20
0.000284
  0
LWPOLYLINE
  5
B2
100
AcDbEntity
  8
F
  6
ByLayer
 62
    7
370
   -1
100
AcDbPolyline
 90
   11
 70
    0
 43
0
 10
0.000564
 20
0.000284
 10
0.000564
 20
8.081096000000001
 10
5.080564
 20
8.081096000000001
 10
5.080564
 20
7.127495
 10
0.997046
 20
7.127495
 10
0.997046
 20
4.624974
 10
4.530959
 20
4.624974
 10
4.530959
 20
3.671374
 10
0.997046
 20
3.671374
 10
0.997046
 20
0.000284
 10
0.000564
 20
0.000284
  0
LWPOLYLINE
  5
B3
100
AcDbEntity
  8
G
  6
ByLayer
 62
    7
370
   -1
100
AcDbPolyline
 90
   30
 70
    0
 43
0
 10
2.753822
 20
3.307561
 10
2.753822
 20
4.255658
 10
5.080282
 20
4.261303
 10
5.080282
 20
1.262692
 10
3.97512
 20
0.317332
 10
2.80627
 20
0.000396
 10
1.335843
 20
0.510259
 10
0.33745
 20
1.984757
 10
0.000282
 20
4.140032
 10
0.335577
 20
6.342127
 10
1.300253
 20
7.860737
 10
2.750076
 20
8.356826999999999
 10
3.827141
 20
8.072939999999999
 10
4.582023
 20
7.281956
 10
4.997863
 20
5.959039
 10
4.342259
 20
5.694456
 10
4.035061
 20
6.664594
 10
3.510577
 20
7.229575
 10
2.753822
 20
7.441806
 10
1.89217
 20
7.218568
 10
1.305872
 20
6.631518
 10
0.959338
 20
5.832265
 10
0.749545
 20
4.206157
 10
1.002421
 20
2.398185
 10
1.738571
 20
1.31781
 10
2.765061
 20
0.965032
 10
3.686654
 20
1.232353
 10
4.368483
 20
1.802865
 10
4.368483
 20
3.307674
 10
2.753822
 20
3.307561
  0
LWPOLYLINE
  5
B4
100
AcDbEntity
  8
H
  6
ByLayer
 62
    7
370
   -1
100
AcDbPolyline
 90
   13
 70
    0
 43
0
 10
0.000282
 20
0.000284
 10
0.000282
 20
8.081096000000001
 10
0.857256
 20
8.081096000000001
 10
0.857256
 20
4.762784
 10
4.223308
 20
4.762784
 10
4.223308
 20
8.081096000000001
 10
5.080282
 20
8.081096000000001
 10
5.080282
 20
0.000284
 10
4.223308
 20
0.000284
 10
4.223308
 20
3.809183
 10
0.857256
 20
3.809183
 10
0.857256
 20
0.000284
 10
0.000282
 20
0.000284
  0
LWPOLYLINE
  5
B5
100
AcDbEntity
  8
I
  6
ByLayer
 62
    7
370
   -1
100
AcDbPolyline
 90
    5
 70
    0
 43
0
 10
1.975556
 20
0.000288
 10
1.975556
 20
8.081101
 10
3.044913
 20
8.081101
 10
3.044913
 20
0.000288
 10
1.975556
 20
0.000288
  0
LWPOLYLINE
  5
B6
100
AcDbEntity
  8
J
  6
ByLayer
 62
    7
370
   -1
100
AcDbPolyline
 90
   15
 70
    0
 43
0
 10
0.00111
 20
2.431153
 10
0.965737
 20
2.563431
 10
1.313003
 20
1.295632
 10
2.167386
 20
0.953889
 10
2.861918
 20
1.138547
 10
3.264305
 20
1.640141
 10
3.374548
 20
2.651625
 10
3.374548
 20
8.218909999999999
 10
4.443906
 20
8.218909999999999
 10
4.443906
 20
2.712275
 10
4.198615
 20
1.141313
 10
3.421401
 20
0.292417
 10
2.172899
 20
0.000288
 10
0.544057
 20
0.612146
 10
0.00111
 20
2.431153
  0
LWPOLYLINE
  5
B7
100
AcDbEntity
  8
K
  6
ByLayer
 62
    7
370
   -1
100
AcDbPolyline
 90
   13
 70
    0
 43
0
 10
0.000282
 20
0.000284
 10
0.000282
 20
8.081096000000001
 10
0.813418
 20
8.081096000000001
 10
0.813418
 20
4.073766
 10
3.864771
 20
8.081096000000001
 10
4.967114
 20
8.081096000000001
 10
2.389391
 20
4.806867
 10
5.080282
 20
0.000284
 10
4.007279
 20
0.000284
 10
1.819358
 20
4.090304
 10
0.813418
 20
2.800464
 10
0.813418
 20
0.000284
 10
0.000282
 20
0.000284
  0
LWPOLYLINE
  5
B8
100
AcDbEntity
  8
L
  6
ByLayer
 62
    7
370
   -1
100
AcDbPolyline
 90
    7
 70
    0
 43
0
 10
0.000564
 20
0.000284
 10
0.000564
 20
8.081096000000001
 10
1.069922
 20
8.081096000000001
 10
1.069922
 20
0.953884
 10
5.049696
 20
0.953884
 10
5.049696
 20
0.000284
 10
0.000564
 20
0.000284
  0
LWPOLYLINE
  5
B9
100
AcDbEntity
  8
M
  6
ByLayer
 62
    7
370
   -1
100
AcDbPolyline
 90
   16
 70
    0
 43
0
 10
0.000282
 20
0.000284
 10
0.000282
 20
8.081096000000001
 10
1.060582
 20
8.081096000000001
 10
2.320597
 20
2.359492
 10
2.574778
 20
1.16335
 10
2.858009
 20
2.458693
 10
4.132548
 20
8.081096000000001
 10
5.080282
 20
8.081096000000001
 10
5.080282
 20
0.000284
 10
4.401254
 20
0.000284
 10
4.401254
 20
6.763683
 10
2.854378
 20
0.000284
 10
2.218924
 20
0.000284
 10
0.67931
 20
6.87945
 10
0.67931
 20
0.000284
 10
0.000282
 20
0.000284
  0
LWPOLYLINE
  5
BA
100
AcDbEntity
  8
N
  6
ByLayer
 62
    7
370
   -1
100
AcDbPolyline
 90
   11
 70
    0
 43
0
 10
0.000564
 20
0.000284
 10
0.000564
 20
8.081096000000001
 10
0.87582
 20
8.081096000000001
 10
4.262486
 20
1.736599
 10
4.262486
 20
8.081096000000001
 10
5.080564
 20
8.081096000000001
 10
5.080564
 20
0.000284
 10
4.205309
 20
0.000284
 10
0.818642
 20
6.350284
 10
0.818642
 20
0.000284
 10
0.000564
 20
0.000284
  0
LWPOLYLINE
  5
BB
100
AcDbEntity
  8
O
  6
ByLayer
 62
    7
370
   -1
100
AcDbPolyline
 90
   12
 70
    0
 43
0
 10
0.000282
 20
4.073766
 10
0.710468
 20
7.223959
 10
2.543906
 20
8.362218
 10
3.870068
 20
7.827548
 10
4.770482
 20
6.336511
 10
5.080282
 20
4.167464
 10
4.754177
 20
1.968134
 10
3.830211
 20
0.49914
 10
2.540282
 20
0.000284
 10
1.199626
 20
0.551492
 10
0.304647
 20
2.056329
 10
0.000282
 20
4.073766
  0
LWPOLYLINE
  5
BC
100
AcDbEntity
  8
O
  6
ByLayer
 62
    7
370
   -1
100
AcDbPolyline
 90
   10
 70
    0
 43
0
 10
0.724961
 20
4.057115
 10
1.241295
 20
1.75579
 10
2.536659
 20
0.915192
 10
3.842893
 20
1.76406
 10
4.355603
 20
4.172883
 10
4.136388
 20
5.895426
 10
3.495047
 20
7.036422
 10
2.547529
 20
7.44158
 10
1.263035
 20
6.661603
 10
0.724961
 20
4.057115
  0
LWPOLYLINE
  5
BD
100
AcDbEntity
  8
P
  6
ByLayer
 62
    7
370
   -1
100
AcDbPolyline
 90
   12
 70
    0
 43
0
 10
0.000282
 20
0.000284
 10
0.000282
 20
8.081096000000001
 10
2.510774
 20
8.081096000000001
 10
3.523142
 20
8.003935999999999
 10
4.34484
 20
7.626351
 10
4.878262
 20
6.846374
 10
5.080282
 20
5.743957
 10
4.54005
 20
3.999344
 10
2.58795
 20
3.28552
 10
0.880997
 20
3.28552
 10
0.880997
 20
0.000284
 10
0.000282
 20
0.000284
  0
LWPOLYLINE
  5
BE
100
AcDbEntity
  8
P
  6
ByLayer
 62
    7
370
   -1
100
AcDbPolyline
 90
    9
 70
    0
 43
0
 10
0.880997
 20
4.23912
 10
2.601569
 20
4.23912
 10
3.813687
 20
4.624974
 10
4.172329
 20
5.710881
 10
3.96123
 20
6.579025
 10
3.405108
 20
7.055839
 10
2.58341
 20
7.127495
 10
0.880997
 20
7.127495
 10
0.880997
 20
4.23912
  0
LWPOLYLINE
  5
BF
100
AcDbEntity
  8
Q
  6
ByLayer
 62
    7
370
   -1
100
AcDbPolyline
 90
   16
 70
    0
 43
0
 10
4.195723
 20
1.494086
 10
5.080282
 20
0.7444190000000001
 10
4.877793
 20
0.000284
 10
3.758772
 20
0.992464
 10
2.479891
 20
0.49087
 10
1.197457
 20
1.020037
 10
0.311121
 20
2.508308
 10
0.000282
 20
4.669086
 10
0.312898
 20
6.846374
 10
1.202786
 20
8.340176
 10
2.4941
 20
8.852804000000001
 10
3.794296
 20
8.320872
 10
4.677079
 20
6.832601
 10
4.980814
 20
4.674589
 10
4.785429
 20
2.88039
 10
4.195723
 20
1.494086
  0
LWPOLYLINE
  5
C0
100
AcDbEntity
  8
Q
  6
ByLayer
 62
    7
370
   -1
100
AcDbPolyline
 90
   13
 70
    0
 43
0
 10
2.678828
 20
2.861086
 10
3.662856
 20
2.089377
 10
4.270324
 20
4.674589
 10
4.055401
 20
6.388863
 10
3.426618
 20
7.527122
 10
2.497653
 20
7.93228
 10
1.218772
 20
7.113723
 10
0.710772
 20
4.669086
 10
1.213443
 20
2.249228
 10
2.497653
 20
1.405891
 10
3.193933
 20
1.62086
 10
2.511863
 20
2.083874
 10
2.678828
 20
2.861086
  0
LWPOLYLINE
  5
C1
100
AcDbEntity
  8
R
  6
ByLayer
 62
    7
370
   -1
100
AcDbPolyline
 90
   20
 70
    0
 43
0
 10
0.000282
 20
0.000284
 10
0.000282
 20
8.081096000000001
 10
2.55601
 20
8.081096000000001
 10
3.727713
 20
7.863362
 10
4.36861
 20
7.094419
 10
4.608456
 20
5.876235
 10
4.211335
 20
4.426544
 10
2.984586
 20
3.676877
 10
3.444617
 20
3.274513
 10
4.077651
 20
2.199641
 10
5.080282
 20
0.000284
 10
4.120901
 20
0.000284
 10
3.358115
 20
1.681481
 10
2.807651
 20
2.794933
 10
2.42036
 20
3.335134
 10
2.072388
 20
3.550103
 10
1.647743
 20
3.588683
 10
0.763069
 20
3.588683
 10
0.763069
 20
0.000284
 10
0.000282
 20
0.000284
  0
LWPOLYLINE
  5
C2
100
AcDbEntity
  8
R
  6
ByLayer
 62
    7
370
   -1
100
AcDbPolyline
 90
    9
 70
    0
 43
0
 10
0.763069
 20
4.514738
 10
2.402666
 20
4.514738
 10
3.220499
 20
4.66632
 10
3.668734
 20
5.151375
 10
3.822078
 20
5.876235
 10
3.52522
 20
6.818829
 10
2.587465
 20
7.188117
 10
0.763069
 20
7.188117
 10
0.763069
 20
4.514738
  0
LWPOLYLINE
  5
C3
100
AcDbEntity
  8
S
  6
ByLayer
 62
    7
370
   -1
100
AcDbPolyline
 90
   36
 70
    0
 43
0
 10
0.000282
 20
2.734311
 10
0.796889
 20
2.822506
 10
1.060248
 20
1.82756
 10
1.702322
 20
1.199164
 10
2.681756
 20
0.959388
 10
3.534952
 20
1.141308
 10
4.085612
 20
1.640136
 10
4.266263
 20
2.331919
 10
4.092142
 20
2.996129
 10
3.51754
 20
3.472943
 10
2.381396
 20
3.867067
 10
1.149485
 20
4.371426
 10
0.468234
 20
5.12383
 10
0.244053
 20
6.129783
 10
0.518294
 20
7.273574
 10
1.319254
 20
8.081096000000001
 10
2.490222
 20
8.356714
 10
3.741722
 20
8.067323999999999
 10
4.575329
 20
7.21569
 10
4.888748
 20
5.942388
 10
4.079082
 20
5.8652
 10
3.637249
 20
7.022763
 10
2.525047
 20
7.41412
 10
1.408491
 20
7.058605
 10
1.058071
 20
6.201468
 10
1.306195
 20
5.484877
 10
2.57946
 20
4.908862
 10
3.992022
 20
4.393468
 10
4.814747
 20
3.569407
 10
5.080282
 20
2.420113
 10
4.788628
 20
1.204695
 10
3.950668
 20
0.317219
 10
2.720933
 20
0.000284
 10
1.269194
 20
0.319985
 10
0.350702
 20
1.281855
 10
0.000282
 20
2.734311
  0
LWPOLYLINE
  5
C4
100
AcDbEntity
  8
T
  6
ByLayer
 62
    7
370
   -1
100
AcDbPolyline
 90
    9
 70
    0
 43
0
 10
1.994539
 20
0.000284
 10
1.994539
 20
7.127495
 10
0.000282
 20
7.127495
 10
0.000282
 20
8.081096000000001
 10
4.79806
 20
8.081096000000001
 10
4.79806
 20
7.127495
 10
2.795545
 20
7.127495
 10
2.795545
 20
0.000284
 10
1.994539
 20
0.000284
  0
LWPOLYLINE
  5
C5
100
AcDbEntity
  8
U
  6
ByLayer
 62
    7
370
   -1
100
AcDbPolyline
 90
   18
 70
    0
 43
0
 10
4.225538
 20
8.218904999999999
 10
5.080282
 20
8.218904999999999
 10
5.080282
 20
3.550103
 10
4.859987
 20
1.615357
 10
4.064723
 20
0.449525
 10
2.555703
 20
0.000284
 10
1.070915
 20
0.391641
 10
0.247012
 20
1.524396
 10
0.000282
 20
3.550103
 10
0.000282
 20
8.218904999999999
 10
0.855026
 20
8.218904999999999
 10
0.855026
 20
3.555634
 10
1.011436
 20
2.003948
 10
1.548955
 20
1.235006
 10
2.480803
 20
0.964919
 10
3.824601
 20
1.499589
 10
4.225538
 20
3.555634
 10
4.225538
 20
8.218904999999999
  0
LWPOLYLINE
  5
C6
100
AcDbEntity
  8
V
  6
ByLayer
 62
    7
370
   -1
100
AcDbPolyline
 90
   10
 70
    0
 43
0
 10
2.15199
 20
0.000284
 10
0.000282
 20
8.081096000000001
 10
0.795808
 20
8.081096000000001
 10
2.239119
 20
2.210648
 10
2.530812
 20
0.887731
 10
2.830081
 20
2.210648
 10
4.330215
 20
8.081096000000001
 10
5.080282
 20
8.081096000000001
 10
2.905845
 20
0.000284
 10
2.15199
 20
0.000284
  0
LWPOLYLINE
  5
C7
100
AcDbEntity
  8
W
  6
ByLayer
 62
    7
370
   -1
100
AcDbPolyline
 90
   20
 70
    0
 43
0
 10
0.907511
 20
-0.017355
 10
0.000282
 20
8.081096000000001
 10
0.67769
 20
8.063598000000001
 10
1.137555
 20
2.784067
 10
1.304643
 20
1.67722
 10
1.48251
 20
2.624216
 10
2.234404
 20
8.081237
 10
2.865025
 20
8.081237
 10
3.430967
 20
3.991216
 10
3.826387
 20
1.83597
 10
3.934924
 20
2.8888
 10
4.413654
 20
8.081237
 10
5.080282
 20
8.081237
 10
4.279131
 20
0.018064
 10
3.492951
 20
0.000566
 10
2.642569
 20
5.716666
 10
2.518601
 20
6.770597
 10
2.36744
 20
5.716666
 10
1.582224
 20
0.000566
 10
0.907511
 20
-0.017355
  0
LWPOLYLINE
  5
C8
100
AcDbEntity
  8
X
  6
ByLayer
 62
    7
370
   -1
100
AcDbPolyline
 90
   17
 70
    0
 43
0
 10
0.000282
 20
0.000284
 10
2.143407
 20
4.211575
 10
0.253526
 20
8.081096000000001
 10
1.126651
 20
8.081096000000001
 10
2.132068
 20
6.008541
 10
2.57808
 20
5.016332
 10
3.016532
 20
5.936884
 10
4.131562
 20
8.081096000000001
 10
4.929092
 20
8.081096000000001
 10
2.982514
 20
4.272197
 10
5.080282
 20
0.000284
 10
4.173139
 20
0.000284
 10
2.778407
 20
2.883127
 10
2.536503
 20
3.423329
 10
2.271919
 20
2.817002
 10
0.8809669999999999
 20
0.000284
 10
0.000282
 20
0.000284
  0
LWPOLYLINE
  5
C9
100
AcDbEntity
  8
Y
  6
ByLayer
 62
    7
370
   -1
100
AcDbPolyline
 90
   12
 70
    0
 43
0
 10
2.135848
 20
0.000288
 10
2.135848
 20
3.423334
 10
0.000282
 20
8.081129000000001
 10
0.892306
 20
8.081129000000001
 10
1.984657
 20
5.644733
 10
2.547842
 20
4.277733
 10
3.152604
 20
5.705382
 10
4.226056
 20
8.081129000000001
 10
5.080282
 20
8.081129000000001
 10
2.869122
 20
3.423334
 10
2.869122
 20
0.000288
 10
2.135848
 20
0.000288
  0
LWPOLYLINE
  5
CA
100
AcDbEntity
  8
Z
  6
ByLayer
 62
    7
370
   -1
100
AcDbPolyline
 90
   13
 70
    0
 43
0
 10
0.000282
 20
0.000284
 10
0.000282
 20
0.992464
 10
3.291982
 20
6.168391
 10
3.958211
 20
7.127495
 10
0.372845
 20
7.127495
 10
0.372845
 20
8.081096000000001
 10
4.975088
 20
8.081096000000001
 10
4.975088
 20
7.127495
 10
1.367806
 20
1.521631
 10
0.977711
 20
0.953884
 10
5.080282
 20
0.953884
 10
5.080282
 20
0.000284
 10
0.000282
 20
0.000284
  0
LWPOLYLINE
  5
CB
100
AcDbEntity
  8
1
  6
ByLayer
 62
    7
370
   -1
100
AcDbPolyline
 90
   10
 70
    0
 43
0
 10
3.823229
 20
0.000284
 10
2.831042
 20
0.000284
 10
2.831042
 20
6.32271
 10
1.89122
 20
5.639225
 10
0.8466669999999999
 20
5.126596
 10
0.8466669999999999
 20
6.0857
 10
2.301875
 20
7.033798
 10
3.183819
 20
8.114172
 10
3.823229
 20
8.114172
 10
3.823229
 20
0.000284
  0
LWPOLYLINE
  5
CC
100
AcDbEntity
  8
2
  6
ByLayer
 62
    7
370
   -1
100
AcDbPolyline
 90
   23
 70
    0
 43
0
 10
4.798942
 20
0.953884
 10
4.798942
 20
0.000284
 10
0.001164
 20
0.000284
 10
0.105141
 20
0.6893010000000001
 10
0.691866
 20
1.764172
 10
1.857889
 20
2.98786
 10
3.457149
 20
4.699396
 10
3.873055
 20
5.892773
 10
3.494283
 20
6.887719
 10
2.506505
 20
7.292849
 10
1.476642
 20
6.862912
 10
1.085492
 20
5.672301
 10
0.169507
 20
5.777006
 10
0.877538
 20
7.516115
 10
2.52631
 20
8.114172
 10
4.180034
 20
7.469238
 10
4.789039
 20
5.870732
 10
4.610794
 20
4.917131
 10
4.019117
 20
3.930454
 10
2.645141
 20
2.508308
 10
1.615277
 20
1.49132
 10
1.238981
 20
0.953884
 10
4.798942
 20
0.953884
  0
LWPOLYLINE
  5
CD
100
AcDbEntity
  8
3
  6
ByLayer
 62
    7
370
   -1
100
AcDbPolyline
 90
   31
 70
    0
 43
0
 10
0.000282
 20
2.276801
 10
0.8998660000000001
 20
2.409107
 10
1.427121
 20
1.19366
 10
2.334201
 20
0.821607
 10
3.406205
 20
1.306662
 10
3.843502
 20
2.508308
 10
3.43869
 20
3.63556
 10
2.409166
 20
4.07927
 10
1.77446
 20
3.969034
 10
1.874414
 20
4.839943
 10
2.019347
 20
4.828936
 10
3.053868
 20
5.159644
 10
3.513655
 20
6.179398
 10
3.17881
 20
7.083412
 10
2.31421
 20
7.441693
 10
1.439616
 20
7.077881
 10
0.989824
 20
5.986471
 10
0.090241
 20
6.16286
 10
0.839893
 20
7.709014
 10
2.29422
 20
8.257485000000001
 10
3.398708
 20
7.973598
 10
4.17085
 20
7.199152
 10
4.438227
 20
6.157356
 10
4.183345
 20
5.203756
 10
3.428694
 20
4.520242
 10
4.438227
 20
3.83399
 10
4.79806
 20
2.530349
 10
4.098384
 20
0.73615
 10
2.329204
 20
0.000284
 10
0.727445
 20
0.6341830000000001
 10
0.000282
 20
2.276801
  0
LWPOLYLINE
  5
CE
100
AcDbEntity
  8
4
  6
ByLayer
 62
    7
370
   -1
100
AcDbPolyline
 90
   12
 70
    0
 43
0
 10
3.009539
 20
0.000284
 10
3.009539
 20
1.935058
 10
0.000282
 20
1.935058
 10
0.000282
 20
2.844547
 10
3.16568
 20
8.081096000000001
 10
3.861216
 20
8.081096000000001
 10
3.861216
 20
2.844547
 10
4.79806
 20
2.844547
 10
4.79806
 20
1.935058
 10
3.861216
 20
1.935058
 10
3.861216
 20
0.000284
 10
3.009539
 20
0.000284
  0
LWPOLYLINE
  5
CF
100
AcDbEntity
  8
4
  6
ByLayer
 62
    7
370
   -1
100
AcDbPolyline
 90
    4
 70
    0
 43
0
 10
3.009539
 20
2.844547
 10
3.009539
 20
6.488093
 10
0.837764
 20
2.844547
 10
3.009539
 20
2.844547
  0
LWPOLYLINE
  5
D0
100
AcDbEntity
  8
5
  6
ByLayer
 62
    7
370
   -1
100
AcDbPolyline
 90
   23
 70
    0
 43
0
 10
0.000282
 20
2.254736
 10
0.933183
 20
2.34293
 10
1.414442
 20
1.199168
 10
2.325131
 20
0.81608
 10
3.411048
 20
1.356282
 10
3.855287
 20
2.789434
 10
3.428324
 20
4.128889
 10
2.310323
 20
4.619476
 10
1.535374
 20
4.401742
 10
0.992415
 20
3.836733
 10
0.158234
 20
3.958004
 10
0.859144
 20
8.108646
 10
4.457477
 20
8.108646
 10
4.457477
 20
7.160577
 10
1.569926
 20
7.160577
 10
1.179983
 20
4.988764
 10
2.547251
 20
5.495889
 10
4.14651
 20
4.762788
 10
4.79806
 20
2.877629
 10
4.225486
 20
0.981434
 10
2.325131
 20
0.000288
 10
0.7135320000000001
 20
0.61765
 10
0.000282
 20
2.254736
  0
LWPOLYLINE
  5
D1
100
AcDbEntity
  8
6
  6
ByLayer
 62
    7
370
   -1
100
AcDbPolyline
 90
   20
 70
    0
 43
0
 10
4.669194
 20
6.240048
 10
3.782002
 20
6.16286
 10
3.444968
 20
7.011728
 10
2.552819
 20
7.43619
 10
1.804405
 20
7.171607
 10
1.14025
 20
6.173895
 10
0.887475
 20
4.305273
 10
1.675539
 20
5.115561
 10
2.651947
 20
5.380145
 10
4.171078
 20
4.649782
 10
4.79806
 20
2.761884
 10
4.503155
 20
1.348008
 10
3.692787
 20
0.347558
 10
2.523081
 20
0.000284
 10
0.704088
 20
0.912539
 10
0.000282
 20
3.919419
 10
0.778434
 20
7.325926
 10
2.607339
 20
8.251982
 10
4.012474
 20
7.717283
 10
4.669194
 20
6.240048
  0
LWPOLYLINE
  5
D2
100
AcDbEntity
  8
6
  6
ByLayer
 62
    7
370
   -1
100
AcDbPolyline
 90
   10
 70
    0
 43
0
 10
1.026253
 20
2.756353
 10
1.22203
 20
1.775207
 10
1.769711
 20
1.061383
 10
2.508212
 20
0.816075
 10
3.479663
 20
1.3232
 10
3.886086
 20
2.701235
 10
3.484619
 20
4.021386
 10
2.473517
 20
4.503704
 10
1.447546
 20
4.021386
 10
1.026253
 20
2.756353
  0
LWPOLYLINE
  5
D3
100
AcDbEntity
  8
7
  6
ByLayer
 62
    7
370
   -1
100
AcDbPolyline
 90
   12
 70
    0
 43
0
 10
0.000282
 20
7.022763
 10
0.000282
 20
7.976363
 10
4.79806
 20
7.976363
 10
4.79806
 20
7.204655
 10
3.395127
 20
5.021864
 10
2.320809
 20
2.221683
 10
1.971972
 20
0.000284
 10
1.036683
 20
0.000284
 10
1.380465
 20
2.304374
 10
2.323337
 20
4.908862
 10
3.630213
 20
7.022763
 10
0.000282
 20
7.022763
  0
LWPOLYLINE
  5
D4
100
AcDbEntity
  8
8
  6
ByLayer
 62
    7
370
   -1
100
AcDbPolyline
 90
   17
 70
    0
 43
0
 10
1.385976
 20
4.520242
 10
0.561513
 20
5.165176
 10
0.293314
 20
6.168391
 10
0.864478
 20
7.651159
 10
2.384271
 20
8.251982
 10
3.918964
 20
7.637358
 10
4.500061
 20
6.140818
 10
4.234346
 20
5.16241
 10
3.427266
 20
4.520242
 10
4.447911
 20
3.737527
 10
4.79806
 20
2.447686
 10
4.137496
 20
0.705839
 10
2.399171
 20
0.000284
 10
0.660846
 20
0.708605
 10
0.000282
 20
2.475231
 10
0.360364
 20
3.79541
 10
1.385976
 20
4.520242
  0
LWPOLYLINE
  5
D5
100
AcDbEntity
  8
8
  6
ByLayer
 62
    7
370
   -1
100
AcDbPolyline
 90
    9
 70
    0
 43
0
 10
1.207177
 20
6.201468
 10
1.539942
 20
5.264377
 10
2.404138
 20
4.900593
 10
3.25095
 20
5.26164
 10
3.581232
 20
6.146322
 10
3.241017
 20
7.064108
 10
2.394204
 20
7.43619
 10
1.544908
 20
7.072377
 10
1.207177
 20
6.201468
  0
LWPOLYLINE
  5
D6
100
AcDbEntity
  8
8
  6
ByLayer
 62
    7
370
   -1
100
AcDbPolyline
 90
   10
 70
    0
 43
0
 10
0.919111
 20
2.469728
 10
1.100394
 20
1.648405
 10
1.639275
 20
1.03381
 10
2.409104
 20
0.816075
 10
3.467
 20
1.273586
 10
3.884198
 20
2.436652
 10
3.454583
 20
3.621759
 10
2.379305
 20
4.090304
 10
1.333826
 20
3.627291
 10
0.919111
 20
2.469728
  0
LWPOLYLINE
  5
D7
100
AcDbEntity
  8
9
  6
ByLayer
 62
    7
370
   -1
100
AcDbPolyline
 90
   23
 70
    0
 43
0
 10
0.13466
 20
2.006714
 10
0.995672
 20
2.094909
 10
1.413735
 20
1.119238
 10
2.20507
 20
0.816075
 10
2.929216
 20
1.02554
 10
3.439353
 20
1.585018
 10
3.772809
 20
2.530349
 10
3.907186
 20
3.74303
 10
3.90221
 20
3.94146
 10
3.16811
 20
3.172518
 10
2.160278
 20
2.877624
 10
0.627378
 20
3.605221
 10
0.000283
 20
5.523457
 10
0.654751
 20
7.502315
 10
2.294656
 20
8.251982
 10
3.596127
 20
7.827548
 10
4.491978
 20
6.617633
 10
4.79806
 20
4.343853
 10
4.494467
 20
1.877174
 10
3.59115
 20
0.479836
 10
2.185163
 20
0.000284
 10
0.78664
 20
0.526684
 10
0.13466
 20
2.006714
  0
LWPOLYLINE
  5
D8
100
AcDbEntity
  8
9
  6
ByLayer
 62
    7
370
   -1
100
AcDbPolyline
 90
    9
 70
    0
 43
0
 10
3.80267
 20
5.573072
 10
3.392072
 20
6.929065
 10
2.404148
 20
7.430658
 10
1.363966
 20
6.890485
 10
0.921018
 20
5.490381
 10
1.34157
 20
4.236383
 10
2.379263
 20
3.754065
 10
3.402026
 20
4.236383
 10
3.80267
 20
5.573072
  0
LWPOLYLINE
  5
D9
100
AcDbEntity
  8
0
  6
ByLayer
 62
    7
370
   -1
100
AcDbPolyline
 90
   13
 70
    0
 43
0
 10
0.000282
 20
4.123381
 10
0.268777
 20
6.430209
 10
1.066734
 20
7.777933
 10
2.399171
 20
8.251982
 10
3.43802
 20
7.990136
 10
4.175754
 20
7.234994
 10
4.632446
 20
6.03332
 10
4.79806
 20
4.123381
 10
4.532074
 20
1.82756
 10
3.736627
 20
0.47707
 10
2.399171
 20
0.000284
 10
0.727979
 20
0.838117
 10
0.000282
 20
4.123381
  0
LWPOLYLINE
  5
DA
100
AcDbEntity
  8
0
  6
ByLayer
 62
    7
370
   -1
100
AcDbPolyline
 90
    9
 70
    0
 43
0
 10
0.928722
 20
4.123381
 10
1.352794
 20
1.474782
 10
2.399171
 20
0.816075
 10
3.445548
 20
1.477548
 10
3.86962
 20
4.123381
 10
3.445548
 20
6.774718
 10
2.389134
 20
7.430658
 10
1.395452
 20
6.851877
 10
0.928722
 20
4.123381
  0
LWPOLYLINE
  5
DB
100
AcDbEntity
  8
a_
  6
ByLayer
 62
    7
370
   -1
100
AcDbPolyline
 90
   28
 70
    0
 43
0
 10
4.156446
 20
0.8546550000000001
 10
3.095356
 20
0.193211
 10
2.001194
 20
0.000284
 10
0.518425
 20
0.471566
 10
0.000282
 20
1.675978
 10
0.195964
 20
2.461459
 10
0.7085939999999999
 20
3.031971
 10
1.422418
 20
3.357176
 10
2.304362
 20
3.50602
 10
4.073763
 20
3.847763
 10
4.079275
 20
4.106843
 10
3.798155
 20
4.961214
 10
2.668164
 20
5.297454
 10
1.634635
 20
5.052174
 10
1.141298
 20
4.184002
 10
0.171159
 20
4.316308
 10
0.606619
 20
5.322261
 10
1.483051
 20
5.912077
 10
2.81148
 20
6.118777
 10
4.029666
 20
5.942388
 10
4.718685
 20
5.49865
 10
5.027365
 20
4.823405
 10
5.076975
 20
3.908412
 10
5.076975
 20
2.585496
 10
5.140365
 20
0.835379
 10
5.391167
 20
0.132561
 10
4.354883
 20
0.132561
 10
4.156446
 20
0.8546550000000001
  0
LWPOLYLINE
  5
DC
100
AcDbEntity
  8
a_
  6
ByLayer
 62
    7
370
   -1
100
AcDbPolyline
 90
   11
 70
    0
 43
0
 10
4.073763
 20
3.070551
 10
2.45319
 20
2.695732
 10
1.587782
 20
2.497301
 10
1.196419
 20
2.174834
 10
1.058616
 20
1.703551
 10
1.359028
 20
1.042079
 10
2.238216
 20
0.777495
 10
3.257965
 20
1.028306
 10
3.913911
 20
1.714558
 10
4.073763
 20
2.706738
 10
4.073763
 20
3.070551
  0
LWPOLYLINE
  5
DD
100
AcDbEntity
  8
b_
  6
ByLayer
 62
    7
370
   -1
100
AcDbPolyline
 90
   14
 70
    0
 43
0
 10
0.920812
 20
0.132561
 10
0.000282
 20
0.132561
 10
0.000282
 20
8.213402
 10
0.99247
 20
8.213402
 10
0.99247
 20
5.33053
 10
2.596506
 20
6.118777
 10
3.619011
 20
5.901042
 10
4.412761
 20
5.289184
 10
4.900586
 20
4.33835
 10
5.076975
 20
3.14771
 10
4.332834
 20
0.821607
 10
2.546897
 20
0.000284
 10
0.920812
 20
0.86569
 10
0.920812
 20
0.132561
  0
LWPOLYLINE
  5
DE
100
AcDbEntity
  8
b_
  6
ByLayer
 62
    7
370
   -1
100
AcDbPolyline
 90
    9
 70
    0
 43
0
 10
0.909787
 20
3.103627
 10
1.196419
 20
1.58228
 10
2.464214
 20
0.816075
 10
3.588694
 20
1.381084
 10
4.062739
 20
3.065048
 10
3.607986
 20
4.75728
 10
2.508312
 20
5.302985
 10
1.383832
 20
4.737976
 10
0.909787
 20
3.103627
  0
LWPOLYLINE
  5
DF
100
AcDbEntity
  8
c_
  6
ByLayer
 62
    7
370
   -1
100
AcDbPolyline
 90
   20
 70
    0
 43
0
 10
4.123372
 20
2.276801
 10
5.099023
 20
2.150027
 10
4.280469
 20
0.570796
 10
2.662652
 20
0.000284
 10
0.730642
 20
0.785764
 10
0.000282
 20
3.037474
 10
0.314475
 20
4.696631
 10
1.270833
 20
5.763233
 10
2.668164
 20
6.118777
 10
4.228103
 20
5.636459
 10
5.005317
 20
4.266693
 10
4.04069
 20
4.117849
 10
3.552865
 20
5.005325
 10
2.706749
 20
5.302985
 10
1.488563
 20
4.765549
 10
1.020031
 20
3.065048
 10
1.472027
 20
1.350773
 10
2.651628
 20
0.816075
 10
3.627279
 20
1.174384
 10
4.123372
 20
2.276801
  0
LWPOLYLINE
  5
E0
100
AcDbEntity
  8
d_
  6
ByLayer
 62
    7
370
   -1
100
AcDbPolyline
 90
   15
 70
    0
 43
0
 10
4.156446
 20
0.132561
 10
4.156446
 20
0.871193
 10
2.519336
 20
0.000284
 10
1.232248
 20
0.386138
 10
0.322743
 20
1.463747
 10
0.000282
 20
3.054013
 10
0.292426
 20
4.644278
 10
1.168859
 20
5.738426
 10
2.475239
 20
6.118777
 10
3.417817
 20
5.895539
 10
4.0903
 20
5.313992
 10
4.0903
 20
8.213402
 10
5.076975
 20
8.213402
 10
5.076975
 20
0.132561
 10
4.156446
 20
0.132561
  0
LWPOLYLINE
  5
E1
100
AcDbEntity
  8
d_
  6
ByLayer
 62
    7
370
   -1
100
AcDbPolyline
 90
    9
 70
    0
 43
0
 10
1.020031
 20
3.054013
 10
1.494076
 20
1.372815
 10
2.613043
 20
0.816075
 10
3.718229
 20
1.348008
 10
4.172982
 20
2.971322
 10
3.709961
 20
4.73521
 10
2.568945
 20
5.297454
 10
1.463759
 20
4.75728
 10
1.020031
 20
3.054013
  0
LWPOLYLINE
  5
E2
100
AcDbEntity
  8
e_
  6
ByLayer
 62
    7
370
   -1
100
AcDbPolyline
 90
   16
 70
    0
 43
0
 10
4.338347
 20
2.017721
 10
5.363607
 20
1.890947
 10
4.465126
 20
0.496374
 10
2.789432
 20
0.000284
 10
0.752691
 20
0.791268
 10
0.000282
 20
3.00993
 10
0.7609590000000001
 20
5.302985
 10
2.73431
 20
6.118777
 10
4.652539
 20
5.319523
 10
5.39668
 20
3.070551
 10
5.391168
 20
2.805968
 10
1.025543
 20
2.805968
 10
1.571246
 20
1.328704
 10
2.794944
 20
0.816075
 10
3.726498
 20
1.1027
 10
4.338347
 20
2.017721
  0
LWPOLYLINE
  5
E3
100
AcDbEntity
  8
e_
  6
ByLayer
 62
    7
370
   -1
100
AcDbPolyline
 90
    6
 70
    0
 43
0
 10
1.080664
 20
3.621759
 10
4.349371
 20
3.621759
 10
3.974544
 20
4.729707
 10
2.745334
 20
5.302985
 10
1.59605
 20
4.845475
 10
1.080664
 20
3.621759
  0
LWPOLYLINE
  5
E4
100
AcDbEntity
  8
f_
  6
ByLayer
 62
    7
370
   -1
100
AcDbPolyline
 90
   20
 70
    0
 43
0
 10
2.287543
 20
0.000288
 10
2.287543
 20
5.08249
 10
1.411111
 20
5.08249
 10
1.411111
 20
5.854198
 10
2.287543
 20
5.854198
 10
2.287543
 20
6.477063
 10
2.392274
 20
7.353504
 10
2.896636
 20
7.979134
 10
3.908116
 20
8.218909999999999
 10
4.834158
 20
8.119681
 10
4.68533
 20
7.254274
 10
4.101042
 20
7.309392
 10
3.461632
 20
7.116465
 10
3.274219
 20
6.394372
 10
3.274219
 20
5.854198
 10
4.415234
 20
5.854198
 10
4.415234
 20
5.08249
 10
3.274219
 20
5.08249
 10
3.274219
 20
0.000288
 10
2.287543
 20
0.000288
  0
LWPOLYLINE
  5
E5
100
AcDbEntity
  8
g_
  6
ByLayer
 62
    7
370
   -1
100
AcDbPolyline
 90
   22
 70
    0
 43
0
 10
0.19872
 20
-0.367113
 10
1.163346
 20
-0.510426
 10
1.499588
 20
-1.160863
 10
2.508312
 20
-1.436453
 10
3.572157
 20
-1.160863
 10
4.079275
 20
-0.389155
 10
4.150933
 20
0.884147
 10
2.53036
 20
0.11797
 10
0.661741
 20
0.98888
 10
0.000282
 20
3.077973
 10
0.303451
 20
4.624156
 10
1.182639
 20
5.718303
 10
2.535873
 20
6.104158
 10
4.24464
 20
5.266324
 10
4.24464
 20
5.97188
 10
5.159657
 20
5.97188
 10
5.159657
 20
0.91172
 10
4.881294
 20
-1.02582
 10
3.999349
 20
-1.92704
 10
2.513824
 20
-2.257776
 10
0.821593
 20
-1.786494
 10
0.19872
 20
-0.367113
  0
LWPOLYLINE
  5
E6
100
AcDbEntity
  8
g_
  6
ByLayer
 62
    7
370
   -1
100
AcDbPolyline
 90
    9
 70
    0
 43
0
 10
1.02003
 20
3.149658
 10
1.477539
 20
1.468432
 10
2.624067
 20
0.939265
 10
3.770595
 20
1.465694
 10
4.233616
 20
3.116581
 10
3.756814
 20
4.737158
 10
2.607531
 20
5.282834
 10
1.483051
 20
4.745399
 10
1.02003
 20
3.149658
  0
LWPOLYLINE
  5
E7
100
AcDbEntity
  8
h_
  6
ByLayer
 62
    7
370
   -1
100
AcDbPolyline
 90
   18
 70
    0
 43
0
 10
0.000282
 20
0.000284
 10
0.000282
 20
8.081096000000001
 10
0.99247
 20
8.081096000000001
 10
0.99247
 20
5.181714
 10
2.745334
 20
5.986471
 10
3.875326
 20
5.730157
 10
4.561589
 20
5.021864
 10
4.768294
 20
3.709954
 10
4.768294
 20
0.000284
 10
3.776107
 20
0.000284
 10
3.776107
 20
3.709954
 10
3.453646
 20
4.793094
 10
2.541385
 20
5.1321
 10
1.711806
 20
4.90333
 10
1.157834
 20
4.283232
 10
0.99247
 20
3.202857
 10
0.99247
 20
0.000284
 10
0.000282
 20
0.000284
  0
LWPOLYLINE
  5
E8
100
AcDbEntity
  8
i_
  6
ByLayer
 62
    7
370
   -1
100
AcDbPolyline
 90
    5
 70
    0
 43
0
 10
2.257778
 20
6.940072
 10
2.257778
 20
8.081096000000001
 10
3.249965
 20
8.081096000000001
 10
3.249965
 20
6.940072
 10
2.257778
 20
6.940072
  0
LWPOLYLINE
  5
E9
100
AcDbEntity
  8
i_
  6
ByLayer
 62
    7
370
   -1
100
AcDbPolyline
 90
    5
 70
    0
 43
0
 10
2.257778
 20
0.000284
 10
2.257778
 20
5.854193
 10
3.249965
 20
5.854193
 10
3.249965
 20
0.000284
 10
2.257778
 20
0.000284
  0
LWPOLYLINE
  5
EA
100
AcDbEntity
  8
j_
  6
ByLayer
 62
    7
370
   -1
100
AcDbPolyline
 90
    5
 70
    0
 43
0
 10
2.667882
 20
9.304788
 10
2.667882
 20
10.456848
 10
3.660069
 20
10.456848
 10
3.660069
 20
9.304788
 10
2.667882
 20
9.304788
  0
LWPOLYLINE
  5
EB
100
AcDbEntity
  8
j_
  6
ByLayer
 62
    7
370
   -1
100
AcDbPolyline
 90
   11
 70
    0
 43
0
 10
1.411111
 20
0.105021
 10
1.598524
 20
0.948386
 10
2.067057
 20
0.871198
 10
2.519054
 20
1.072394
 10
2.667882
 20
2.078375
 10
2.667882
 20
8.229945000000001
 10
3.660069
 20
8.229945000000001
 10
3.660069
 20
2.056334
 10
3.37895
 20
0.551497
 10
2.188325
 20
0.000288
 10
1.411111
 20
0.105021
  0
LWPOLYLINE
  5
EC
100
AcDbEntity
  8
k_
  6
ByLayer
 62
    7
370
   -1
100
AcDbPolyline
 90
   13
 70
    0
 43
0
 10
0.000282
 20
0.000284
 10
0.000282
 20
8.081096000000001
 10
0.99247
 20
8.081096000000001
 10
0.99247
 20
3.472943
 10
3.340647
 20
5.854193
 10
4.624978
 20
5.854193
 10
2.387044
 20
3.682409
 10
4.850977
 20
0.000284
 10
3.627279
 20
0.000284
 10
1.692513
 20
2.993391
 10
0.99247
 20
2.320912
 10
0.99247
 20
0.000284
 10
0.000282
 20
0.000284
  0
LWPOLYLINE
  5
ED
100
AcDbEntity
  8
l_
  6
ByLayer
 62
    7
370
   -1
100
AcDbPolyline
 90
    5
 70
    0
 43
0
 10
2.257778
 20
0.000284
 10
2.257778
 20
8.081096000000001
 10
3.249965
 20
8.081096000000001
 10
3.249965
 20
0.000284
 10
2.257778
 20
0.000284
  0
LWPOLYLINE
  5
EE
100
AcDbEntity
  8
m_
  6
ByLayer
 62
    7
370
   -1
100
AcDbPolyline
 90
   29
 70
    0
 43
0
 10
0.000282
 20
0.000288
 10
0.000282
 20
5.854198
 10
0.600225
 20
5.854198
 10
0.600225
 20
5.032875
 10
1.09583
 20
5.724658
 10
1.800111
 20
5.986476
 10
2.52116
 20
5.716389
 10
2.918017
 20
4.961219
 10
4.140261
 20
5.986476
 10
5.045764
 20
5.504158
 10
5.362504
 20
4.018653
 10
5.362504
 20
0.000288
 10
4.446036
 20
0.000288
 10
4.396145
 20
3.63802
 10
4.430715
 20
4.44526
 10
4.194091
 20
4.866957
 10
3.791645
 20
4.777379
 10
3.198324
 20
4.316821
 10
3.022355
 20
3.401292
 10
3.022355
 20
0.000288
 10
2.25183
 20
-0.049608
 10
2.15205
 20
3.654022
 10
2.037981
 20
4.596306
 10
1.651057
 20
4.827248
 10
1.327065
 20
4.556879
 10
0.9287609999999999
 20
4.211298
 10
0.970368
 20
2.987582
 10
1.020258
 20
0.050185
 10
0.000282
 20
0.000288
  0
LWPOLYLINE
  5
EF
100
AcDbEntity
  8
n_
  6
ByLayer
 62
    7
370
   -1
100
AcDbPolyline
 90
   19
 70
    0
 43
0
 10
0.000564
 20
0.000284
 10
0.000564
 20
5.854193
 10
0.893533
 20
5.854193
 10
0.893533
 20
5.021864
 10
2.756641
 20
5.986471
 10
3.729536
 20
5.79631
 10
4.39375
 20
5.297454
 10
4.702431
 20
4.564353
 10
4.757552
 20
3.599718
 10
4.757552
 20
0.000284
 10
3.765365
 20
0.000284
 10
3.765365
 20
3.561138
 10
3.64961
 20
4.46789
 10
3.238954
 20
4.947442
 10
2.547179
 20
5.126596
 10
1.453017
 20
4.724204
 10
0.992752
 20
3.197325
 10
0.992752
 20
0.000284
 10
0.000564
 20
0.000284
  0
LWPOLYLINE
  5
F0
100
AcDbEntity
  8
o_
  6
ByLayer
 62
    7
370
   -1
100
AcDbPolyline
 90
   10
 70
    0
 43
0
 10
0.000282
 20
3.059516
 10
0.9042750000000001
 20
5.468339
 10
2.745334
 20
6.118777
 10
4.718685
 20
5.327764
 10
5.484874
 20
3.142207
 10
5.145877
 20
1.364546
 10
4.159201
 20
0.358565
 10
2.745334
 20
0.000284
 10
0.758203
 20
0.78853
 10
0.000282
 20
3.059516
  0
LWPOLYLINE
  5
F1
100
AcDbEntity
  8
o_
  6
ByLayer
 62
    7
370
   -1
100
AcDbPolyline
 90
    9
 70
    0
 43
0
 10
1.020031
 20
3.059516
 10
1.510612
 20
1.375552
 10
2.745334
 20
0.816075
 10
3.974544
 20
1.378318
 10
4.465126
 20
3.092592
 10
3.971788
 20
4.737976
 10
2.745334
 20
5.297454
 10
1.510612
 20
4.740742
 10
1.020031
 20
3.059516
  0
LWPOLYLINE
  5
F2
100
AcDbEntity
  8
p_
  6
ByLayer
 62
    7
370
   -1
100
AcDbPolyline
 90
   16
 70
    0
 43
0
 10
0.000282
 20
-2.257772
 10
0.000282
 20
5.839579
 10
0.9042750000000001
 20
5.839579
 10
0.9042750000000001
 20
5.078906
 10
1.626367
 20
5.748619
 10
2.602018
 20
5.971885
 10
3.924935
 20
5.586031
 10
4.790343
 20
4.497358
 10
5.082487
 20
2.956736
 10
4.760026
 20
1.338897
 10
3.82296
 20
0.23648
 10
2.53036
 20
-0.146608
 10
1.640148
 20
0.062857
 10
0.99247
 20
0.592024
 10
0.99247
 20
-2.257772
 10
0.000282
 20
-2.257772
  0
LWPOLYLINE
  5
F3
100
AcDbEntity
  8
p_
  6
ByLayer
 62
    7
370
   -1
100
AcDbPolyline
 90
    9
 70
    0
 43
0
 10
0.898763
 20
2.879548
 10
1.356272
 20
1.209385
 10
2.464214
 20
0.669183
 10
3.596962
 20
1.228661
 10
4.068251
 20
2.962239
 10
3.607986
 20
4.637933
 10
2.508312
 20
5.194645
 10
1.386589
 20
4.602091
 10
0.898763
 20
2.879548
  0
LWPOLYLINE
  5
F4
100
AcDbEntity
  8
q_
  6
ByLayer
 62
    7
370
   -1
100
AcDbPolyline
 90
   14
 70
    0
 43
0
 10
4.079275
 20
-2.257776
 10
4.079275
 20
0.608557
 10
3.431597
 20
0.068356
 10
2.546897
 20
-0.146613
 10
0.752691
 20
0.685717
 10
0.000282
 20
2.967737
 10
0.306207
 20
4.549734
 10
1.193663
 20
5.610833
 10
2.469727
 20
5.97188
 10
4.178494
 20
5.056859
 10
4.178494
 20
5.839574
 10
5.071463
 20
5.839574
 10
5.071463
 20
-2.257776
 10
4.079275
 20
-2.257776
  0
LWPOLYLINE
  5
F5
100
AcDbEntity
  8
q_
  6
ByLayer
 62
    7
370
   -1
100
AcDbPolyline
 90
    9
 70
    0
 43
0
 10
1.020031
 20
2.929158
 10
1.494076
 20
1.234187
 10
2.629579
 20
0.6691780000000001
 10
3.720985
 20
1.206614
 10
4.178494
 20
2.840963
 10
3.696181
 20
4.599349
 10
2.563433
 20
5.189137
 10
1.469271
 20
4.640694
 10
1.020031
 20
2.929158
  0
LWPOLYLINE
  5
F6
100
AcDbEntity
  8
r_
  6
ByLayer
 62
    7
370
   -1
100
AcDbPolyline
 90
   14
 70
    0
 43
0
 10
1.693333
 20
0.000284
 10
1.693333
 20
5.854193
 10
2.586302
 20
5.854193
 10
2.586302
 20
4.966746
 10
3.217444
 20
5.78804
 10
3.854097
 20
5.986471
 10
4.873845
 20
5.66677
 10
4.532092
 20
4.746245
 10
3.804488
 20
4.961214
 10
3.2202
 20
4.765549
 10
2.850885
 20
4.222582
 10
2.685521
 20
3.065048
 10
2.685521
 20
0.000284
 10
1.693333
 20
0.000284
  0
LWPOLYLINE
  5
F7
100
AcDbEntity
  8
s_
  6
ByLayer
 62
    7
370
   -1
100
AcDbPolyline
 90
   34
 70
    0
 43
0
 10
0.000282
 20
1.87994
 10
0.981445
 20
2.034259
 10
1.44171
 20
1.130273
 10
2.497287
 20
0.816075
 10
3.511523
 20
1.094431
 10
3.842253
 20
1.747634
 10
3.550109
 20
2.276801
 10
2.535872
 20
2.61304
 10
1.022787
 20
3.089855
 10
0.383377
 20
3.646566
 10
0.165647
 20
4.432047
 10
0.344792
 20
5.156907
 10
0.8326170000000001
 20
5.710881
 10
1.463759
 20
6.000272
 10
2.320899
 20
6.118777
 10
3.530816
 20
5.920346
 10
4.299761
 20
5.38291
 10
4.641515
 20
4.476159
 10
3.671376
 20
4.343853
 10
3.288281
 20
5.049408
 10
2.392557
 20
5.302985
 10
1.416906
 20
5.076982
 10
1.124761
 20
4.547815
 10
1.246029
 20
4.20054
 10
1.626367
 20
3.935957
 10
2.5028
 20
3.682409
 10
3.971788
 20
3.222132
 10
4.624978
 20
2.701235
 10
4.862001
 20
1.852367
 10
4.572613
 20
0.918042
 10
3.737522
 20
0.24006
 10
2.5028
 20
0.000284
 10
0.763715
 20
0.474332
 10
0.000282
 20
1.87994
  0
LWPOLYLINE
  5
F8
100
AcDbEntity
  8
t_
  6
ByLayer
 62
    7
370
   -1
100
AcDbPolyline
 90
   21
 70
    0
 43
0
 10
4.12309
 20
0.964896
 10
4.266406
 20
0.08848300000000001
 10
3.516753
 20
0.000288
 10
2.678906
 20
0.171146
 10
2.259983
 20
0.620387
 10
2.138715
 20
1.791722
 10
2.138715
 20
5.159649
 10
1.411111
 20
5.159649
 10
1.411111
 20
5.931358
 10
2.138715
 20
5.931358
 10
2.138715
 20
7.381049
 10
3.125391
 20
7.976368
 10
3.125391
 20
5.931358
 10
4.12309
 20
5.931358
 10
4.12309
 20
5.159649
 10
3.125391
 20
5.159649
 10
3.125391
 20
1.736604
 10
3.177756
 20
1.190899
 10
3.348633
 20
0.997972
 10
3.68763
 20
0.926316
 10
4.12309
 20
0.964896
  0
LWPOLYLINE
  5
F9
100
AcDbEntity
  8
u_
  6
ByLayer
 62
    7
370
   -1
100
AcDbPolyline
 90
   21
 70
    0
 43
0
 10
3.858789
 20
0.132566
 10
3.858789
 20
0.992469
 10
3.104444
 20
0.282228
 10
2.001194
 20
0.000288
 10
1.033811
 20
0.198719
 10
0.36684
 20
0.6975749999999999
 10
0.060916
 20
1.433441
 10
0.000282
 20
2.359469
 10
0.000282
 20
5.986476
 10
0.99247
 20
5.986476
 10
0.99247
 20
2.73982
 10
1.053103
 20
1.692521
 10
1.449978
 20
1.077898
 10
2.199631
 20
0.85466
 10
3.037478
 20
1.083429
 10
3.59145
 20
1.706294
 10
3.754058
 20
2.850056
 10
3.754058
 20
5.986476
 10
4.746246
 20
5.986476
 10
4.746246
 20
0.132566
 10
3.858789
 20
0.132566
  0
LWPOLYLINE
  5
FA
100
AcDbEntity
  8
v_
  6
ByLayer
 62
    7
370
   -1
100
AcDbPolyline
 90
   10
 70
    0
 43
0
 10
2.227192
 20
0.000288
 10
0.000282
 20
5.854198
 10
1.047591
 20
5.854198
 10
2.304362
 20
2.34849
 10
2.679188
 20
1.168886
 10
3.048503
 20
2.282337
 10
4.349371
 20
5.854198
 10
5.369119
 20
5.854198
 10
3.153234
 20
0.000288
 10
2.227192
 20
0.000288
  0
LWPOLYLINE
  5
FB
100
AcDbEntity
  8
w_
  6
ByLayer
 62
    7
370
   -1
100
AcDbPolyline
 90
   19
 70
    0
 43
0
 10
1.190788
 20
0.000288
 10
0.000282
 20
5.854198
 10
0.6816179999999999
 20
5.854198
 10
1.300681
 20
2.475264
 10
1.531456
 20
1.218472
 10
1.732926
 20
2.42565
 10
2.351989
 20
5.854198
 10
3.029662
 20
5.854198
 10
3.612094
 20
2.458726
 10
3.806238
 20
1.339743
 10
4.029687
 20
2.469733
 10
4.69637
 20
5.854198
 10
5.337412
 20
5.854198
 10
4.121264
 20
0.000288
 10
3.436266
 20
0.000288
 10
2.817202
 20
3.506025
 10
2.667016
 20
4.503737
 10
1.87945
 20
0.000288
 10
1.190788
 20
0.000288
  0
LWPOLYLINE
  5
FC
100
AcDbEntity
  8
x_
  6
ByLayer
 62
    7
370
   -1
100
AcDbPolyline
 90
   16
 70
    0
 43
0
 10
0.000282
 20
0.000288
 10
2.138997
 20
3.042983
 10
0.160135
 20
5.854198
 10
1.400369
 20
5.854198
 10
2.29885
 20
4.481667
 10
2.706749
 20
3.825726
 10
3.153234
 20
4.470632
 10
4.139909
 20
5.854198
 10
5.325022
 20
5.854198
 10
3.302062
 20
3.098101
 10
5.479362
 20
0.000288
 10
4.261176
 20
0.000288
 10
3.059527
 20
1.819295
 10
2.739822
 20
2.309882
 10
1.201932
 20
0.000288
 10
0.000282
 20
0.000288
  0
LWPOLYLINE
  5
FD
100
AcDbEntity
  8
y_
  6
ByLayer
 62
    7
370
   -1
100
AcDbPolyline
 90
   19
 70
    0
 43
0
 10
0.518425
 20
-2.136501
 10
0.408182
 20
-1.20497
 10
0.9759330000000001
 20
-1.293164
 10
1.5051
 20
-1.1829
 10
1.830317
 20
-0.874234
 10
2.133485
 20
-0.135602
 10
2.22168
 20
0.10694
 10
0.000282
 20
5.971857
 10
1.06964
 20
5.971857
 10
2.287826
 20
2.581888
 10
2.712261
 20
1.225895
 10
3.120161
 20
2.559846
 10
4.371419
 20
5.971857
 10
5.363607
 20
5.971857
 10
3.136697
 20
0.018746
 10
2.57997
 20
-1.309702
 10
1.973633
 20
-2.02903
 10
1.157834
 20
-2.257772
 10
0.518425
 20
-2.136501
  0
LWPOLYLINE
  5
FE
100
AcDbEntity
  8
z_
  6
ByLayer
 62
    7
370
   -1
100
AcDbPolyline
 90
   14
 70
    0
 43
0
 10
0.000282
 20
0.000288
 10
0.000282
 20
0.805073
 10
3.726497
 20
5.082518
 10
2.607531
 20
5.049442
 10
0.220768
 20
5.049442
 10
0.220768
 20
5.854198
 10
5.005317
 20
5.854198
 10
5.005317
 20
5.198257
 10
1.835829
 20
1.483084
 10
1.22398
 20
0.805073
 10
2.475239
 20
0.854688
 10
5.181706
 20
0.854688
 10
5.181706
 20
0.000288
 10
0.000282
 20
0.000288
  0
LWPOLYLINE
  5
FF
100
AcDbEntity
  8
~
  6
ByLayer
 62
    7
370
   -1
100
AcDbPolyline
 90
   17
 70
    0
 43
0
 10
0.056224
 20
3.176129
 10
0.056224
 20
4.306122
 10
1.360019
 20
4.967578
 10
1.950948
 20
4.871117
 10
2.832651
 20
4.488021
 10
3.318056
 20
4.278561
 10
3.644005
 20
4.228952
 10
4.274798
 20
4.443925
 10
4.854002
 20
4.984116
 10
4.854002
 20
3.81554
 10
4.246659
 20
3.335982
 10
3.554897
 20
3.187153
 10
3.017902
 20
3.264323
 10
2.206548
 20
3.633639
 10
1.28029
 20
3.925782
 10
0.715156
 20
3.774199
 10
0.056224
 20
3.176129
  0
LWPOLYLINE
  5
100
100
AcDbEntity
  8
!
  6
ByLayer
 62
    7
370
   -1
100
AcDbPolyline
 90
    7
 70
    0
 43
0
 10
2.278724
 20
1.75215
 10
1.975556
 20
5.491707
 10
1.975556
 20
7.055839
 10
3.204766
 20
7.055839
 10
3.204766
 20
5.491707
 10
2.918134
 20
1.75215
 10
2.278724
 20
1.75215
  0
LWPOLYLINE
  5
101
100
AcDbEntity
  8
!
  6
ByLayer
 62
    7
370
   -1
100
AcDbPolyline
 90
    5
 70
    0
 43
0
 10
2.019653
 20
0.000284
 10
2.019653
 20
0.986904
 10
3.160668
 20
0.986904
 10
3.160668
 20
0.000284
 10
2.019653
 20
0.000284
  0
LWPOLYLINE
  5
102
100
AcDbEntity
  8
@
  6
ByLayer
 62
    7
370
   -1
100
AcDbPolyline
 90
   50
 70
    0
 43
0
 10
2.660085
 20
2.178562
 10
2.291512
 20
1.736674
 10
1.882409
 20
1.569818
 10
1.444175
 20
1.760511
 10
1.098401
 20
2.347251
 10
0.965411
 20
3.216361
 10
1.171862
 20
4.384342
 10
1.684824
 20
5.262618
 10
2.280113
 20
5.555987
 10
2.700615
 20
5.389133
 10
3.045123
 20
4.881238
 10
3.13125
 20
5.449641
 10
3.584683
 20
5.449641
 10
3.21991
 20
2.988996
 10
3.143916
 20
2.420593
 10
3.195845
 20
2.250072
 10
3.321236
 20
2.178562
 10
3.673343
 20
2.402256
 10
4.130576
 20
3.188857
 10
4.29903
 20
4.206486
 10
4.082446
 20
5.35063
 10
3.436494
 20
6.201403
 10
2.487831
 20
6.520443
 10
1.404911
 20
6.118894
 10
0.644968
 20
4.967415
 10
0.375188
 20
3.359378
 10
0.644968
 20
1.811849
 10
1.425177
 20
0.852895
 10
2.556226
 20
0.543021
 10
3.668277
 20
0.865729
 10
4.33956
 20
1.650495
 10
4.79806
 20
1.650495
 10
4.354759
 20
0.865729
 10
3.607481
 20
0.233151
 10
2.563825
 20
0.000287
 10
1.526502
 20
0.209314
 10
0.717162
 20
0.838225
 10
0.213066
 20
1.804514
 10
0.000282
 20
3.300705
 10
0.253597
 20
5.005918
 10
1.131332
 20
6.527778
 10
2.510629
 20
7.055843
 10
3.639146
 20
6.683629
 10
4.42822
 20
5.574324
 10
4.673936
 20
4.195484
 10
4.157174
 20
2.306913
 10
3.148982
 20
1.566153
 10
2.866536
 20
1.643163
 10
2.708215
 20
1.863189
 10
2.660085
 20
2.178562
  0
LWPOLYLINE
  5
103
100
AcDbEntity
  8
@
  6
ByLayer
 62
    7
370
   -1
100
AcDbPolyline
 90
   13
 70
    0
 43
0
 10
1.434043
 20
3.172355
 10
1.598697
 20
2.391257
 10
1.976136
 20
2.112555
 10
2.275047
 20
2.235403
 10
2.575224
 20
2.600281
 10
2.80954
 20
3.214525
 10
2.900734
 20
3.960788
 10
2.729746
 20
4.734551
 10
2.313044
 20
5.009585
 10
2.0078
 20
4.890405
 10
1.730421
 20
4.507189
 10
1.515103
 20
3.865441
 10
1.434043
 20
3.172355
  0
LWPOLYLINE
  5
104
100
AcDbEntity
  8
#
  6
ByLayer
 62
    7
370
   -1
100
AcDbPolyline
 90
   29
 70
    0
 43
0
 10
0.360555
 20
0.000312
 10
0.742795
 20
1.982931
 10
0.000282
 20
1.982931
 10
0.000282
 20
2.676394
 10
0.874603
 20
2.676394
 10
1.199727
 20
4.365815
 10
0.000282
 20
4.365815
 10
0.000282
 20
5.059249
 10
1.331534
 20
5.059249
 10
1.713774
 20
7.055854
 10
2.37281
 20
7.055854
 10
1.990569
 20
5.059249
 10
3.374544
 20
5.059249
 10
3.756784
 20
7.055854
 10
4.420213
 20
7.055854
 10
4.037973
 20
5.059249
 10
4.79806
 20
5.059249
 10
4.79806
 20
4.365815
 10
3.906166
 20
4.365815
 10
3.576648
 20
2.676394
 10
4.79806
 20
2.676394
 10
4.79806
 20
1.982931
 10
3.444841
 20
1.982931
 10
3.0626
 20
0.000312
 10
2.403565
 20
0.000312
 10
2.781412
 20
1.982931
 10
1.401831
 20
1.982931
 10
1.01959
 20
0.000312
 10
0.360555
 20
0.000312
  0
LWPOLYLINE
  5
105
100
AcDbEntity
  8
#
  6
ByLayer
 62
    7
370
   -1
100
AcDbPolyline
 90
    5
 70
    0
 43
0
 10
1.533638
 20
2.676394
 10
2.913219
 20
2.676394
 10
3.242737
 20
4.365815
 10
1.858762
 20
4.365815
 10
1.533638
 20
2.676394
  0
LWPOLYLINE
  5
106
100
AcDbEntity
  8
$
  6
ByLayer
 62
    7
370
   -1
100
AcDbPolyline
 90
   31
 70
    0
 43
0
 10
2.161755
 20
0.000281
 10
2.161755
 20
0.701166
 10
1.076073
 20
0.936747
 10
0.353933
 20
1.483833
 10
0.000282
 20
2.406651
 10
0.8955379999999999
 20
2.539041
 10
1.261554
 20
1.709673
 10
2.161755
 20
1.293024
 10
2.161755
 20
3.524185
 10
1.038976
 20
3.859052
 10
0.38361
 20
4.376915
 10
0.153613
 20
5.128407
 10
0.826291
 20
6.339392
 10
2.161755
 20
6.720984
 10
2.161755
 20
7.055851
 10
2.686049
 20
7.055851
 10
2.686049
 20
6.720984
 10
3.917643
 20
6.362755
 10
4.619998
 20
5.315309
 10
3.700012
 20
5.206283
 10
3.371092
 20
5.839032
 10
2.686049
 20
6.129126
 10
2.686049
 20
4.108255
 10
3.576358
 20
3.901871
 10
4.253982
 20
3.551429
 10
4.657094
 20
3.06081
 10
4.79806
 20
2.445589
 10
4.209467
 20
1.230723
 10
2.686049
 20
0.7089530000000001
 10
2.686049
 20
0.000281
 10
2.161755
 20
0.000281
  0
LWPOLYLINE
  5
107
100
AcDbEntity
  8
$
  6
ByLayer
 62
    7
370
   -1
100
AcDbPolyline
 90
    6
 70
    0
 43
0
 10
2.161755
 20
6.136914
 10
1.343165
 20
5.809835
 10
1.043923
 20
5.18292
 10
1.29865
 20
4.583274
 10
2.161755
 20
4.1978
 10
2.161755
 20
6.136914
  0
LWPOLYLINE
  5
108
100
AcDbEntity
  8
$
  6
ByLayer
 62
    7
370
   -1
100
AcDbPolyline
 90
    6
 70
    0
 43
0
 10
2.686049
 20
1.293024
 10
3.544208
 20
1.647372
 10
3.88302
 20
2.398864
 10
3.643131
 20
3.012131
 10
2.686049
 20
3.426828
 10
2.686049
 20
1.293024
  0
LWPOLYLINE
  5
109
100
AcDbEntity
  8
%
  6
ByLayer
 62
    7
370
   -1
100
AcDbPolyline
 90
    9
 70
    0
 43
0
 10
0.000282
 20
5.334189
 10
0.24078
 20
6.553498
 10
0.9379189999999999
 20
7.055837
 10
1.633536
 20
6.606018
 10
1.909043
 20
5.283957
 10
1.630492
 20
3.975595
 10
0.944008
 20
3.516643
 10
0.269701
 20
3.968747
 10
0.000282
 20
5.334189
  0
LWPOLYLINE
  5
10A
100
AcDbEntity
  8
%
  6
ByLayer
 62
    7
370
   -1
100
AcDbPolyline
 90
    9
 70
    0
 43
0
 10
0.95314
 20
6.489565
 10
0.613704
 20
6.224698
 10
0.478233
 20
5.25199
 10
0.6152260000000001
 20
4.345497
 10
0.95314
 20
4.082912
 10
1.295621
 20
4.347782
 10
1.431092
 20
5.315924
 10
1.294099
 20
6.22698
 10
0.95314
 20
6.489565
  0
LWPOLYLINE
  5
10B
100
AcDbEntity
  8
%
  6
ByLayer
 62
    7
370
   -1
100
AcDbPolyline
 90
    5
 70
    0
 43
0
 10
0.956185
 20
0.000281
 10
3.397693
 20
7.055837
 10
3.842158
 20
7.055837
 10
1.409782
 20
0.000281
 10
0.956185
 20
0.000281
  0
LWPOLYLINE
  5
10C
100
AcDbEntity
  8
%
  6
ByLayer
 62
    7
370
   -1
100
AcDbPolyline
 90
    9
 70
    0
 43
0
 10
2.886255
 20
1.817829
 10
3.126753
 20
3.039424
 10
3.826936
 20
3.539474
 10
4.522553
 20
3.089655
 10
4.79806
 20
1.767594
 10
4.519509
 20
0.459236
 10
3.82998
 20
0.000281
 10
3.155673
 20
0.454669
 10
2.886255
 20
1.817829
  0
LWPOLYLINE
  5
10D
100
AcDbEntity
  8
%
  6
ByLayer
 62
    7
370
   -1
100
AcDbPolyline
 90
    9
 70
    0
 43
0
 10
3.842158
 20
2.973205
 10
3.499677
 20
2.708335
 10
3.364206
 20
1.735628
 10
3.501199
 20
0.831419
 10
3.839113
 20
0.566553
 10
4.184638
 20
0.831419
 10
4.320109
 20
1.799561
 10
4.183116
 20
2.71062
 10
3.842158
 20
2.973205
  0
LWPOLYLINE
  5
10E
100
AcDbEntity
  8
^
  6
ByLayer
 62
    7
370
   -1
100
AcDbPolyline
 90
    8
 70
    0
 43
0
 10
1.299766
 20
3.009647
 10
0.280017
 20
3.009647
 10
2.225807
 20
7.424873
 10
3.025069
 20
7.424873
 10
4.981884
 20
3.009647
 10
3.984184
 20
3.009647
 10
2.622682
 20
6.300387
 10
1.299766
 20
3.009647
  0
LWPOLYLINE
  5
10F
100
AcDbEntity
  8
&
  6
ByLayer
 62
    7
370
   -1
100
AcDbPolyline
 90
   21
 70
    0
 43
0
 10
3.449538
 20
0.958006
 10
2.69343
 20
0.270957
 10
1.808705
 20
0.041942
 10
0.417311
 20
0.745183
 10
0.000282
 20
2.026749
 10
0.34131
 20
3.16258
 10
1.360497
 20
4.053197
 10
0.846032
 20
4.909116
 10
0.7174160000000001
 20
5.54296
 10
1.120803
 20
6.604763
 10
2.136092
 20
7.055857
 10
3.09292
 20
6.630211
 10
3.465128
 20
5.607733
 10
2.38553
 20
3.956039
 10
3.410563
 20
2.40613
 10
3.683385
 20
3.349955
 10
4.412211
 20
3.164892
 10
3.905541
 20
1.702888
 10
4.79806
 20
0.661906
 10
4.326467
 20
0.000302
 10
3.449538
 20
0.958006
  0
LWPOLYLINE
  5
110
100
AcDbEntity
  8
&
  6
ByLayer
 62
    7
370
   -1
100
AcDbPolyline
 90
   10
 70
    0
 43
0
 10
2.023066
 20
4.492723
 10
2.613532
 20
5.052542
 10
2.747994
 20
5.584601
 10
2.562865
 20
6.151357
 10
2.101015
 20
6.37112
 10
1.627473
 20
6.153672
 10
1.438446
 20
5.621613
 10
1.506652
 20
5.290813
 10
1.711269
 20
4.922996
 10
2.023066
 20
4.492723
  0
LWPOLYLINE
  5
111
100
AcDbEntity
  8
&
  6
ByLayer
 62
    7
370
   -1
100
AcDbPolyline
 90
    8
 70
    0
 43
0
 10
3.009124
 20
1.614983
 10
1.722961
 20
3.507261
 10
0.955161
 20
2.760066
 10
0.75639
 20
2.077642
 10
1.03311
 20
1.221722
 10
1.8165
 20
0.777568
 10
2.469325
 20
1.011211
 10
3.009124
 20
1.614983
  0
LWPOLYLINE
  5
112
100
AcDbEntity
  8
*
  6
ByLayer
 62
    7
370
   -1
100
AcDbPolyline
 90
   16
 70
    0
 43
0
 10
0.723194
 20
5.292769
 10
0.976753
 20
6.075512
 10
2.250061
 20
5.540814
 10
2.139818
 20
6.913345
 10
2.93908
 20
6.913345
 10
2.8123
 20
5.546345
 10
4.113168
 20
6.075512
 10
4.366727
 20
5.292769
 10
2.994201
 20
4.984102
 10
3.942292
 20
3.942307
 10
3.280833
 20
3.473762
 10
2.525668
 20
4.658869
 10
1.809089
 20
3.473762
 10
1.158654
 20
3.942307
 10
2.073672
 20
4.984102
 10
0.723194
 20
5.292769
  0
LWPOLYLINE
  5
113
100
AcDbEntity
  8
(
  6
ByLayer
 62
    7
370
   -1
100
AcDbPolyline
 90
   11
 70
    0
 43
0
 10
3.067408
 20
0.000298
 10
1.891871
 20
1.854548
 10
1.411393
 20
4.054406
 10
1.770585
 20
5.976093
 10
3.067408
 20
8.100065000000001
 10
3.669171
 20
8.100065000000001
 10
2.922798
 20
6.848429
 10
2.474975
 20
5.634723
 10
2.274387
 20
4.050168
 10
3.669171
 20
0.000298
 10
3.067408
 20
0.000298
  0
LWPOLYLINE
  5
114
100
AcDbEntity
  8
)
  6
ByLayer
 62
    7
370
   -1
100
AcDbPolyline
 90
   11
 70
    0
 43
0
 10
2.013156
 20
0.000295
 10
1.411393
 20
0.000295
 10
2.806178
 20
4.050165
 10
2.60559
 20
5.622086
 10
2.162431
 20
6.835792
 10
1.411393
 20
8.100061999999999
 10
2.013156
 20
8.100061999999999
 10
3.309979
 20
5.97609
 10
3.669171
 20
4.054403
 10
3.186361
 20
1.854545
 10
2.013156
 20
0.000295
  0
LWPOLYLINE
  5
115
100
AcDbEntity
  8
_
  6
ByLayer
 62
    7
370
   -1
100
AcDbPolyline
 90
    5
 70
    0
 43
0
 10
0.000282
 20
-0.722902
 10
0.000282
 20
-0.006323
 10
5.080282
 20
-0.006323
 10
5.080282
 20
-0.722902
 10
0.000282
 20
-0.722902
  0
LWPOLYLINE
  5
116
100
AcDbEntity
  8
+
  6
ByLayer
 62
    7
370
   -1
100
AcDbPolyline
 90
   13
 70
    0
 43
0
 10
1.988621
 20
1.62387
 10
1.988621
 20
3.614287
 10
0.011024
 20
3.614287
 10
0.011024
 20
4.446102
 10
1.988621
 20
4.446102
 10
1.988621
 20
6.421654
 10
2.831206
 20
6.421654
 10
2.831206
 20
4.446102
 10
4.808802
 20
4.446102
 10
4.808802
 20
3.614287
 10
2.831206
 20
3.614287
 10
2.831206
 20
1.62387
 10
1.988621
 20
1.62387
  0
LWPOLYLINE
  5
117
100
AcDbEntity
  8
-
  6
ByLayer
 62
    7
370
   -1
100
AcDbPolyline
 90
    5
 70
    0
 43
0
 10
0.799262
 20
3.607155
 10
0.799262
 20
4.453821
 10
3.847483
 20
4.453821
 10
3.847483
 20
3.607155
 10
0.799262
 20
3.607155
  0
LWPOLYLINE
  5
118
100
AcDbEntity
  8
=
  6
ByLayer
 62
    7
370
   -1
100
AcDbPolyline
 90
    5
 70
    0
 43
0
 10
4.826441
 20
4.626115
 10
0.028663
 20
4.626115
 10
0.028663
 20
5.438278
 10
4.826441
 20
5.438278
 10
4.826441
 20
4.626115
  0
LWPOLYLINE
  5
119
100
AcDbEntity
  8
=
  6
ByLayer
 62
    7
370
   -1
100
AcDbPolyline
 90
    5
 70
    0
 43
0
 10
4.826441
 20
2.474923
 10
0.028663
 20
2.474923
 10
0.028663
 20
3.287058
 10
4.826441
 20
3.287058
 10
4.826441
 20
2.474923
  0
LWPOLYLINE
  5
11A
100
AcDbEntity
  8
,
  6
ByLayer
 62
    7
370
   -1
100
AcDbPolyline
 90
   10
 70
    0
 43
0
 10
2.026267
 20
0.01764
 10
2.026267
 20
1.14763
 10
3.156259
 20
1.14763
 10
3.156259
 20
0.01764
 10
2.935773
 20
-0.988313
 10
2.235729
 20
-1.580866
 10
1.960122
 20
-1.156432
 10
2.423142
 20
-0.751302
 10
2.588507
 20
0.01764
 10
2.026267
 20
0.01764
  0
LWPOLYLINE
  5
11B
100
AcDbEntity
  8
.
  6
ByLayer
 62
    7
370
   -1
100
AcDbPolyline
 90
    5
 70
    0
 43
0
 10
2.030677
 20
1e-06
 10
2.030677
 20
1.129991
 10
3.160668
 20
1.129991
 10
3.160668
 20
1e-06
 10
2.030677
 20
1e-06
  0
LWPOLYLINE
  5
11C
100
AcDbEntity
  8
<
  6
ByLayer
 62
    7
370
   -1
100
AcDbPolyline
 90
    8
 70
    0
 43
0
 10
0.458611
 20
2.922511
 10
0.458611
 20
3.848554
 10
4.691944
 20
6.108536
 10
4.691944
 20
5.121861
 10
1.334924
 20
3.380019
 10
4.691944
 20
1.621644
 10
4.691944
 20
0.634968
 10
0.458611
 20
2.922511
  0
LWPOLYLINE
  5
11D
100
AcDbEntity
  8
>
  6
ByLayer
 62
    7
370
   -1
100
AcDbPolyline
 90
    8
 70
    0
 43
0
 10
4.550834
 20
2.922557
 10
0.3175
 20
0.635013
 10
0.3175
 20
1.621689
 10
3.670161
 20
3.380064
 10
0.3175
 20
5.121906
 10
0.3175
 20
6.108581
 10
4.550834
 20
3.848599
 10
4.550834
 20
2.922557
  0
LWPOLYLINE
  5
11E
100
AcDbEntity
  8
?
  6
ByLayer
 62
    7
370
   -1
100
AcDbPolyline
 90
   22
 70
    0
 43
0
 10
1.937651
 20
1.708584
 10
1.93258
 20
1.964103
 10
2.084729
 20
2.830079
 10
2.444816
 20
3.383725
 10
3.101594
 20
3.977608
 10
3.717799
 20
4.59987
 10
3.859805
 20
5.106218
 10
3.44393
 20
5.979282
 10
2.424529
 20
6.355485
 10
1.450773
 20
6.014776
 10
0.938537
 20
4.950066
 10
0.000282
 20
5.054177
 10
0.753422
 20
6.540043
 10
2.409314
 20
7.055851
 10
4.148889
 20
6.502177
 10
4.79806
 20
5.163003
 10
4.569836
 20
4.325433
 10
3.677226
 20
3.393185
 10
3.093987
 20
2.848998
 10
2.891121
 20
2.446788
 10
2.815046
 20
1.708584
 10
1.937651
 20
1.708584
  0
LWPOLYLINE
  5
11F
100
AcDbEntity
  8
?
  6
ByLayer
 62
    7
370
   -1
100
AcDbPolyline
 90
    5
 70
    0
 43
0
 10
1.881863
 20
0.000294
 10
1.881863
 20
0.970354
 10
2.921551
 20
0.970354
 10
2.921551
 20
0.000294
 10
1.881863
 20
0.000294
  0
LWPOLYLINE
  5
120
100
AcDbEntity
  8
/
  6
ByLayer
 62
    7
370
   -1
100
AcDbPolyline
 90
    5
 70
    0
 43
0
 10
1.093611
 20
0.003312
 10
3.436276
 20
7.058881
 10
4.230026
 20
7.058881
 10
1.892873
 20
0.003312
 10
1.093611
 20
0.003312
  0
LWPOLYLINE
  5
121
100
AcDbEntity
  8
;
  6
ByLayer
 62
    7
370
   -1
100
AcDbPolyline
 90
    5
 70
    0
 43
0
 10
2.026267
 20
4.761457
 10
2.026267
 20
5.677466
 10
3.156259
 20
5.677466
 10
3.156259
 20
4.761457
 10
2.026267
 20
4.761457
  0
LWPOLYLINE
  5
122
100
AcDbEntity
  8
;
  6
ByLayer
 62
    7
370
   -1
100
AcDbPolyline
 90
   10
 70
    0
 43
0
 10
2.026267
 20
0.93204
 10
2.026267
 20
1.848049
 10
3.156259
 20
1.848049
 10
3.156259
 20
0.93204
 10
2.935773
 20
0.116559
 10
2.235729
 20
-0.363783
 10
1.960122
 20
-0.019726
 10
2.423142
 20
0.308696
 10
2.588507
 20
0.93204
 10
2.026267
 20
0.93204
  0
LWPOLYLINE
  5
123
100
AcDbEntity
  8
:
  6
ByLayer
 62
    7
370
   -1
100
AcDbPolyline
 90
    5
 70
    0
 43
0
 10
2.025165
 20
4.572948
 10
2.025165
 20
5.430519
 10
3.155156
 20
5.430519
 10
3.155156
 20
4.572948
 10
2.025165
 20
4.572948
  0
LWPOLYLINE
  5
124
100
AcDbEntity
  8
:
  6
ByLayer
 62
    7
370
   -1
100
AcDbPolyline
 90
    5
 70
    0
 43
0
 10
2.025165
 20
0.987792
 10
2.025165
 20
1.845388
 10
3.155156
 20
1.845388
 10
3.155156
 20
0.987792
 10
2.025165
 20
0.987792
  0
LWPOLYLINE
  5
125
100
AcDbEntity
  8
'
  6
ByLayer
 62
    7
370
   -1
100
AcDbPolyline
 90
    7
 70
    0
 43
0
 10
1.582933
 20
5.625122
 10
1.359888
 20
6.404476
 10
1.359888
 20
7.07489
 10
2.274372
 20
7.07489
 10
2.274372
 20
6.404476
 10
2.073632
 20
5.625122
 10
1.582933
 20
5.625122
  0
LWPOLYLINE
  5
126
100
AcDbEntity
  8
'
  6
ByLayer
 62
    7
370
   -1
100
AcDbPolyline
 90
    7
 70
    0
 43
0
 10
3.05949
 20
5.625122
 10
2.840906
 20
6.404476
 10
2.840906
 20
7.07489
 10
3.75539
 20
7.07489
 10
3.75539
 20
6.404476
 10
3.541267
 20
5.625122
 10
3.05949
 20
5.625122
  0
LWPOLYLINE
  5
127
100
AcDbEntity
  8
`
  6
ByLayer
 62
    7
370
   -1
100
AcDbPolyline
 90
    7
 70
    0
 43
0
 10
1.600572
 20
5.625122
 10
1.377527
 20
6.404476
 10
1.377527
 20
7.07489
 10
2.292011
 20
7.07489
 10
2.292011
 20
6.404476
 10
2.09127
 20
5.625122
 10
1.600572
 20
5.625122
  0
LWPOLYLINE
  5
128
100
AcDbEntity
  8
"
  6
ByLayer
 62
    7
370
   -1
100
AcDbPolyline
 90
    7
 70
    0
 43
0
 10
1.64077
 20
5.608059
 10
1.417725
 20
6.387413
 10
1.417725
 20
7.057827
 10
2.33221
 20
7.057827
 10
2.33221
 20
6.387413
 10
2.131469
 20
5.608059
 10
1.64077
 20
5.608059
  0
LWPOLYLINE
  5
129
100
AcDbEntity
  8
"
  6
ByLayer
 62
    7
370
   -1
100
AcDbPolyline
 90
    7
 70
    0
 43
0
 10
3.117328
 20
5.608059
 10
2.898744
 20
6.387413
 10
2.898744
 20
7.057827
 10
3.813228
 20
7.057827
 10
3.813228
 20
6.387413
 10
3.599105
 20
5.608059
 10
3.117328
 20
5.608059
  0
LWPOLYLINE
  5
12A
100
AcDbEntity
  8
[
  6
ByLayer
 62
    7
370
   -1
100
AcDbPolyline
 90
    9
 70
    0
 43
0
 10
1.260078
 20
-0.020971
 10
1.260078
 20
8.078825999999999
 10
3.235634
 20
8.078825999999999
 10
3.235634
 20
7.434463
 10
2.155796
 20
7.434463
 10
2.155796
 20
0.6233919999999999
 10
3.235634
 20
0.6233919999999999
 10
3.235634
 20
-0.020971
 10
1.260078
 20
-0.020971
  0
LWPOLYLINE
  5
12B
100
AcDbEntity
  8
]
  6
ByLayer
 62
    7
370
   -1
100
AcDbPolyline
 90
    9
 70
    0
 43
0
 10
3.848585
 20
0.000279
 10
1.87303
 20
0.000279
 10
1.87303
 20
0.644621
 10
2.952867
 20
0.644621
 10
2.952867
 20
7.455707
 10
1.87303
 20
7.455707
 10
1.87303
 20
8.100047999999999
 10
3.848585
 20
8.100047999999999
 10
3.848585
 20
0.000279
  0
LWPOLYLINE
  5
12C
100
AcDbEntity
  8
{
  6
ByLayer
 62
    7
370
   -1
100
AcDbPolyline
 90
   33
 70
    0
 43
0
 10
0.7198870000000001
 20
4.330412
 10
1.331612
 20
4.505288
 10
1.646005
 20
4.962526
 10
1.728868
 20
5.957093
 10
1.758114
 20
6.884244
 10
1.921403
 20
7.453168
 10
2.216298
 20
7.796622
 10
2.664734
 20
7.99257
 10
3.269148
 20
8.034713999999999
 10
3.542109
 20
8.034713999999999
 10
3.542109
 20
7.373078
 10
3.391006
 20
7.373078
 10
2.718352
 20
7.215049
 10
2.552625
 20
6.509169
 10
2.499008
 20
5.114257
 10
2.199238
 20
4.4189
 10
1.533896
 20
3.984833
 10
2.311347
 20
3.392738
 10
2.552625
 20
2.088412
 10
2.572123
 20
1.110719
 10
2.769532
 20
0.710373
 10
3.391006
 20
0.596588
 10
3.542109
 20
0.596588
 10
3.542109
 20
-0.06504799999999999
 10
3.269148
 20
-0.06504799999999999
 10
2.576997
 20
0.002367
 10
2.060321
 20
0.316325
 10
1.794671
 20
0.866302
 10
1.728868
 20
1.95778
 10
1.646005
 20
3.00714
 10
1.331612
 20
3.466477
 10
0.7198870000000001
 20
3.643479
 10
0.7198870000000001
 20
4.330412
  0
LWPOLYLINE
  5
12D
100
AcDbEntity
  8
}
  6
ByLayer
 62
    7
370
   -1
100
AcDbPolyline
 90
   33
 70
    0
 43
0
 10
4.608689
 20
4.395757
 10
4.608689
 20
3.708824
 10
3.996964
 20
3.531823
 10
3.682571
 20
3.074584
 10
3.599708
 20
2.082143
 10
3.570464
 20
1.154992
 10
3.407174
 20
0.583969
 10
3.112279
 20
0.242615
 10
2.663843
 20
0.046667
 10
2.059429
 20
0.000297
 10
1.786468
 20
0.000297
 10
1.786468
 20
0.661933
 10
1.937572
 20
0.661933
 10
2.610226
 20
0.819962
 10
2.775952
 20
1.530067
 10
2.819821
 20
2.865988
 10
3.131776
 20
3.614012
 10
3.794682
 20
4.050178
 10
3.005044
 20
4.663346
 10
2.775952
 20
5.950798
 10
2.75158
 20
6.932716
 10
2.559045
 20
7.326764
 10
1.937572
 20
7.438449
 10
1.786468
 20
7.438449
 10
1.786468
 20
8.100085999999999
 10
2.059429
 20
8.100085999999999
 10
2.75158
 20
8.032643999999999
 10
3.268257
 20
7.720786
 10
3.533906
 20
7.168736
 10
3.599709
 20
6.077231
 10
3.682573
 20
5.029997
 10
3.996965
 20
4.572759
 10
4.608689
 20
4.395757
  0
LWPOLYLINE
  5
12E
100
AcDbEntity
  8
|
  6
ByLayer
 62
    7
370
   -1
100
AcDbPolyline
 90
    5
 70
    0
 43
0
 10
3.224609
 20
0.000275
 10
0.881944
 20
7.055818
 10
1.681207
 20
7.055818
 10
4.018359
 20
0.000275
 10
3.224609
 20
0.000275
  0
ENDSEC
  0
SECTION
  2
OBJECTS
  0
DICTIONARY
  5
C
330
0
100
AcDbDictionary
281
    1
  3
ACAD_GROUP
350
D
  0
DICTIONARY
  5
D
330
C
100
AcDbDictionary
281
    1
  0
ENDSEC
  0
EOF
